<svg viewBox="0 0 636 429" fill="none" xmlns="http://www.w3.org/2000/svg">
  <path d="M279.2 378.1C279 374.5 279.2 370.9 278.9 367.3C278.7 365.2 278.6 363.1 278.5 361.1C278.4 359.3 278.2 357.5 278.3 355.7C278.3 355.1 278 354.6 277.5 354.4C277.1 354.2 276.7 354.1 276.4 353.9C274.9 353.2 273.4 352.6 271.8 351.9C270.5 351.3 269.3 350.7 268.1 350C265.3 348.5 262.7 346.6 260.5 344.3C259.8 343.6 259.2 342.9 258.5 342.2C255.6 339.3 252.7 336.3 249.6 333.5C245.4 329.7 241.7 325.4 238.3 320.8C237.3 319.5 236.3 318.1 235.3 316.8C233.7 314.7 232.3 312.5 231.2 310.1C229.7 307 228.3 303.9 226.8 300.7C226.1 299.2 225.6 297.6 225 296.1C224.6 294.9 224.1 293.8 223.7 292.6C222.3 288.4 220.4 284.4 218.2 280.5C217.6 279.4 217.1 278.3 216.6 277.1C215.6 274.4 214.5 271.7 213.4 269C212.6 267.1 211.8 265.2 211.2 263.2C210.6 261.2 209.8 259.3 208.8 257.5C207.7 255.6 206.8 253.6 206 251.5C205.6 250.5 205.2 249.4 204.7 248.5C203.5 246.3 202.5 244 201.5 241.7C201 240.4 200.3 239.2 199.4 238.1C198 236.4 196.7 234.6 195.5 232.7C194.3 230.9 192.8 229.2 191.3 227.6C190.4 226.7 189.4 226 188.3 225.4C185.5 223.9 182.5 222.8 179.3 222.3C178.3 222.1 177.4 222.1 176.4 222C173.8 221.9 171.1 222 168.5 222.1C166.6 222.2 164.6 222.3 162.7 222.3C159.4 222.3 156.1 222.8 152.8 223.2C149.5 223.7 146.2 224.3 142.9 224.5C141.5 224.6 140.2 224.9 138.8 225.2C134.7 226 130.6 226.7 126.6 227.8C125 228.2 123.4 228.7 121.8 229.2C118.2 230.3 114.6 231.1 110.9 231.8C108.3 232.3 105.7 232.4 103.1 232.9C100.2 233.4 97.3 233.6 94.4 233.7C93.3 233.7 92.2 233.8 91.1 233.9C83.4 234.6 75.6 234.5 67.9 234.1C64.9 233.9 61.8 233.6 58.8 233C54.9 232.3 50.9 231.6 47.1 230.4C42.3 229 37.7 227.3 33.2 224.9C30.8 223.6 28.5 222 26.2 220.5C24.6 219.4 23 218.3 21.5 217.1C20.4 216.3 19.3 215.5 18.2 214.6C13.8 211.1 10.2 207 7.1 202.3C6 200.7 5.1 199 4.4 197.2C3.2 194.3 2 191.3 1.2 188.2C1.1 187.7 0.900003 187.1 0.800003 186.6C0.500003 184.3 0.200003 181.9 3.18885e-06 179.6C-0.199997 176.3 -0.299997 173 -0.199997 169.6C-0.0999968 167.5 0.100003 165.5 0.800003 163.5C1.1 162.7 1.3 161.9 1.5 161.1C2 159.4 2.6 157.7 3.4 156.1C5.3 152.4 6.9 148.6 8.8 144.9C10.1 142.4 11.5 140.1 13.2 137.9C14 136.8 14.9 135.7 15.7 134.6C18.4 131.1 21.4 127.8 24.8 124.9C25.6 124.2 26.5 123.5 27.4 122.8C31 120.2 34.6 117.6 38.3 115.2C40.2 114 41.9 112.6 43.6 111.3C45.5 109.7 47.5 108.2 49.5 106.7C53.5 103.7 57.7 101 62.3 99C63.4 98.5 64.5 97.9 65.6 97.3C68.4 95.8 71.4 94.7 74.4 93.8C78 92.7 81.6 91.7 85.2 90.7C87.7 90 90.3 89.4 92.9 89C96.3 88.5 99.7 87.9 103.1 87.3C103.9 87.2 104.7 86.9 105.5 86.6C105.7 86.5 106.1 85.9 106.1 85.6C106 85.1 106.1 84.5 105.9 84C104.8 80.4 104.4 76.7 103.9 73C103.8 72.2 103.8 71.3 103.8 70.5C103.8 68.6 103.8 66.6 103.9 64.7C103.9 62.9 104.2 61.1 104.5 59.3C104.7 58 105.3 56.9 106.1 56C107.1 55 108 54 109.1 53.1C110.1 52.3 111.3 52 112.6 52.1C114.1 52.3 115.6 52.8 116.8 53.9C118.8 55.6 120.6 57.5 122.2 59.6C123.5 61.4 124.8 63.2 126.1 65C126.3 65.3 126.7 65.6 127 65.9C127.3 66.1 127.5 66.1 127.7 65.8C127.9 65.6 128 65.4 128.2 65.1C128.8 63.6 129.5 62.1 130 60.5C130.1 60.1 130.2 59.7 130.4 59.3C131.5 56.9 132.1 54.3 132.8 51.8C133.9 48.1 135 44.4 136.3 40.7C137.5 37.3 138.6 33.9 139.5 30.4C140.5 26.8 141.6 23.2 142.9 19.7C144.5 15.3 145.9 10.8 147.1 6.2C147.2 5.7 147.5 5.2 147.9 4.8C148.4 4.3 148.9 3.8 149.3 3.3C151.4 1.2 151.4 1.2 154.4 -0.0999993C154.8 -0.299999 155.2 -0.199999 155.6 -0.0999993C156.1 0.100001 156.6 0.400001 157 0.800001C159.6 3.3 161.8 6.1 163.7 9.2C164.3 10.3 164.8 11.4 165.1 12.6C165.4 13.8 165.6 15 165.8 16.3C166 17.8 166.3 19.3 166.4 20.8C166.7 23.8 167.2 26.8 167.7 29.8C168.3 34 168.9 38.3 169.4 42.6C169.9 46.9 170.2 51.1 170.8 55.4C171.1 57.7 171.4 60 172.1 62.3C172.2 62.6 172.8 62.9 173.1 62.8C173.3 62.7 173.6 62.6 173.8 62.4C174.9 61.6 176 60.8 177.1 59.9C178.3 59 179.7 58.4 181.2 58.1C183 57.7 184.7 57.5 186.6 57.5C188.3 57.5 189.9 57.7 191.2 58.9C191.4 59.1 192.2 59 192.4 58.8C192.6 58.6 192.8 58.5 193 58.3C193.8 57.5 194.6 56.7 195.4 55.9C197.6 53.8 199.8 51.6 202 49.6C205.2 46.5 209 44.2 213 42.3C213.9 41.9 214.8 41.5 215.7 41.3C216.2 41.2 216.8 41.2 217.3 41.2C217.9 41.2 218.4 41.4 218.9 41.7C220 42.5 221 43.5 221.7 44.7C221.9 45 222.1 45.4 222.3 45.8C223.9 49.6 224.4 53.5 223.7 57.6C223.3 60.3 222.6 63 222 65.7C221.5 67.6 221.1 69.5 220.7 71.3C220.5 72 220.7 72.7 221.3 73.2C221.4 73.3 221.5 73.4 221.6 73.5C222.9 74.9 224.3 76.3 225.6 77.7C228.1 80.3 230.3 83.1 232.4 86.1C232.8 86.7 233.2 87.2 233.7 87.7C233.9 87.9 234.2 88 234.4 88.1C234.5 88.1 234.7 88.1 234.8 88.1C236.3 87.9 237.8 88 239.3 88.2C243.5 88.7 247.4 90 251.1 92C251.9 92.5 252.8 93 253.6 93.4C254.7 94 255.7 94.7 256.7 95.5C259.1 97.4 261.5 99.2 263.9 101.1C268 104.4 271.8 108 275.3 112C276.7 113.6 278 115.2 279 117C279.6 118.1 280.4 119 281.4 119.8C284 122 285.8 124.8 287.5 127.6C287.9 128.2 288.2 128.8 288.4 129.4C289.7 132.9 291.5 136.2 293.1 139.5C295.3 144 297.6 148.4 299.3 153.1C299.7 154.1 300.4 154.7 301.3 155C302.3 155.4 303.4 155.8 304.4 156.2C310.1 158.5 314.6 162.2 318 167.3C319 168.8 319.9 170.3 320.9 171.9C321.7 173.3 322.6 174.7 323.6 176.1C324.1 176.9 324.7 177.7 325.2 178.5C326.9 181.7 328.7 184.8 330.3 188C332.1 191.5 333.9 194.9 335.7 198.3C336 198.9 336.7 199.2 337.5 198.9C340.9 197.4 344.5 197.2 348.1 197.1C350.6 197.3 353.1 197.2 355.6 197.1C358 197 360.3 197.1 362.6 197.1C366.9 197.2 371.2 197.4 375.4 197.7C376 197.7 376.5 197.7 377.1 197.8C381.1 198.5 385.1 198.6 389.1 199.1C392 199.4 394.9 199.8 397.7 200.2C401.3 200.7 404.8 201.5 408.2 202.8C412.6 204.5 417 206.1 421.4 207.8C424 208.8 426.5 209.9 429.1 210.9C430.6 211.5 432.1 212.2 433.6 213C436.9 214.8 440.1 216.7 443.2 218.7C444.9 219.8 446.7 220.9 448.5 221.9C448.8 222 449.5 221.9 449.6 221.6C449.7 221.5 449.8 221.4 449.9 221.3C450.1 221.1 450.2 220.8 450.4 220.6C451.9 217.9 453.6 215.4 455.3 212.9C457.4 209.8 459.4 206.7 461.6 203.6C462.7 202.2 463.7 200.7 464.8 199.3C465.6 198.3 466.3 197.3 467.2 196.4C470.2 193.3 473.1 190.2 476.3 187.3C477.7 186 479.1 184.6 480.5 183.3C482.8 181.1 485.2 179 487.9 177.3C489.5 176.2 491.1 175.1 492.7 174C495.6 172 498.4 170.2 501.5 168.6C506 166.3 510.6 164.5 515.4 163.2C517.3 162.7 519.1 162.1 520.9 161.4C523.1 160.6 525.3 159.8 527.5 159C528.3 158.7 529.1 158.5 529.9 158.3C530.3 158.2 530.7 158.4 531.1 158.5C531.8 158.9 532.4 159.5 532.9 160.2C533.3 160.7 533.4 161.5 533 162.1C532.6 162.8 532.2 163.5 531.6 164.2C530 166.1 528.3 168 526.7 169.8C525.5 171.1 524.2 172.4 523 173.8C522.6 174.3 522.8 175.1 523.3 175.2C523.6 175.3 523.8 175.4 524.1 175.4C524.8 175.6 525.5 175.7 526.1 175.8C528.4 176.2 530.6 177.1 532.8 178C534.4 178.8 536 179.6 537.6 180.5C538.4 181 539.2 181.5 540 182.2C543.7 185.3 547.3 188.6 550.6 192.1C552.6 194.2 554.4 196.5 555.9 199C558.2 202.8 560.5 206.6 562.6 210.4C564.3 213.4 565.6 216.6 566.9 219.8C567.9 222.2 568.8 224.7 570 227C570.8 228.6 571.7 230.2 572.5 231.8C574.2 234.8 575.9 237.9 577.4 240.9C579.3 244.7 581.7 248.3 584 251.9C585.8 254.7 587.7 257.4 589.4 260.3C590.4 262.1 591.8 263.7 593.3 265.1C595.1 266.9 597 268.5 599 269.9C599.9 270.5 600.8 271.1 601.8 271.7C603.7 272.9 605.5 274.1 607.1 275.7C608 276.5 609.1 277.2 610.1 277.8C613.2 279.6 616.5 281 620 282.1C623.2 283.1 626.4 283.9 629.8 284C630.6 284 631.5 284.1 632.3 284.2C632.9 284.3 633.4 284.5 633.8 284.9C634.4 285.4 635 286 635.5 286.7C635.8 287.1 635.8 287.9 635.5 288.3C635.3 288.6 635 289 634.7 289.3C633.6 290.4 632.6 291.5 631.5 292.5C630.4 293.6 629.3 294.6 628.2 295.6C627.4 296.9 626.7 298.2 625.9 299.5C624.3 302.1 622.4 304.5 620.2 306.6C618.9 307.9 617.6 309.1 616.4 310.4C615 311.8 613.5 313 611.8 313.9C609.3 315.4 606.8 316.9 604.5 318.6C603.5 319.3 602.4 319.9 601.3 320.5C597.1 322.7 593 324.9 588.6 326.6C586.8 327.3 585 328 583.2 328.8C580.5 330 577.7 330.5 574.8 330.8C574.3 330.9 573.7 330.9 573.1 330.8C569.5 330.5 565.9 330.2 562.5 329C561.5 328.6 560.4 328.2 559.3 328.1C559 328.1 558.8 328.4 558.8 328.6C558.8 328.9 558.9 329.2 559 329.4C559.9 330.8 560.8 332.2 561.8 333.5C562.4 334.4 563.2 335.2 564 336C566 337.9 568.1 339.7 570.4 341.3C571.1 341.8 571.7 342.3 572.3 342.9C572.7 343.2 572.7 344.1 572.4 344.4C571.9 344.9 571.5 345.4 571 345.9C570.9 346 570.8 346.1 570.7 346.2C570.3 346.4 569.9 346.6 569.5 346.5C568 346.2 566.5 346 565 345.9C563.8 345.8 562.5 345.5 561.3 345.2C557.8 344.2 554.4 343.1 551.4 341C550.9 340.7 550.4 340.4 550 340.1C546.3 337.2 542.7 334.2 539.6 330.6C538.7 329.5 537.7 328.5 536.9 327.5C535.1 325.4 533.6 323.1 532.4 320.6C531.2 318 530 315.3 529.2 312.5C528.5 309.8 527.2 307.3 526 304.9C525.6 304.2 525.2 303.5 524.6 302.8C522.3 300 520.3 297 518.2 294.1C512.6 286 506.9 278 501 270.2C499.2 267.8 497.2 265.4 495.3 263C493.7 261.1 491.9 259.3 489.9 257.8C488.7 256.9 487.4 256.1 486 255.5C484.7 255 483.5 254.4 482.1 254.2C481.8 254.1 481.2 254.5 481.3 254.9C481.3 255.3 481.3 255.7 481.4 256.1C482 258.4 482.7 260.6 483.1 262.9C483.8 266.9 484.3 270.8 484.5 274.9C484.6 277.5 484.7 280.2 485 282.8C485.2 285 485.3 287.2 485.1 289.4C484.8 292.4 484.6 295.5 484.5 298.5C484.5 299.6 484.3 300.7 484.1 301.8C483.7 304.4 483.2 307 482.8 309.6C482.4 311.9 481.5 314.1 480.6 316.3C478.1 321.7 474.8 326.7 470.7 331C468.1 333.7 465.4 336.3 462.8 338.9C461.6 340.1 460.3 341.1 459 342.1C457.4 343.2 455.9 344.4 454.4 345.6C453.9 346 453.3 346.5 452.8 346.9C450.6 348.6 448.3 350.2 445.9 351.4C443.1 352.9 440.3 354.4 437.3 355.4C437 355.5 436.8 355.7 436.6 355.9C436.3 356.1 436.2 356.3 436.2 356.6C436.2 357.1 436.1 357.7 436.2 358.2C436.5 360.3 436.5 362.3 436.5 364.4C436.5 370.2 436.5 376 436.5 381.8C436.5 385 436.5 388.2 436.7 391.3C436.9 393.4 437 395.4 437.3 397.5C437.5 398.7 437.6 400 437.7 401.2C437.8 402.3 438 403.4 438.4 404.4C438.6 404.9 438.9 405.4 439.5 405.6C440.2 406 441 406.3 441.8 406.5C443.4 406.9 445 407.3 446.6 407.8C448.3 408.3 449.5 409.3 450.5 410.8C450.7 411.1 450.6 411.6 450.4 411.9C449.4 413.2 448.2 414.4 446.9 415.4C446.1 416 445.2 416.4 444.2 416.1C442.9 415.8 441.8 415.9 440.5 416.3C440 416.5 439.4 416.4 438.9 416.2C436.9 415.5 435.1 414.4 433.6 413C432.6 412 431.6 411.1 430.7 410.1C429.1 408.5 428.3 406.4 427.9 404.2C427.6 402.6 427.5 400.9 427.5 399.2C427.6 394.4 427.7 389.5 428.2 384.7C428.4 382.9 428.4 381.1 428.5 379.3C428.5 376.9 428.5 374.6 428.6 372.3C428.7 369.7 428.9 367 429.1 364.4C429.2 362.5 429.5 360.6 429.3 358.6C429.3 358.3 428.7 357.8 428.4 357.9C428.1 357.9 427.8 357.9 427.6 358C426.4 358.3 425.2 358.6 424 358.9C422.3 359.4 420.5 359.8 418.7 360.1C416.2 360.5 413.8 361.1 411.4 361.9C410.1 362.3 408.7 362.7 407.4 363C405.1 363.5 402.8 364 400.6 364.8C400 365 399.8 365.6 400.1 366.1C400.3 366.3 400.4 366.6 400.6 366.8C402 368.7 403.1 370.8 404.2 372.8C404.8 373.9 405.3 375 405.8 376.2C406.9 378.9 407.8 381.6 408.7 384.4C409.3 386.4 409.7 388.4 409.7 390.5C409.8 392.3 409.8 394.1 409.8 395.9C409.8 396.5 409.8 397 409.7 397.6C409.5 400.2 408.7 402.5 407 404.4C403.8 408.9 399.8 412.8 395.7 416.5C395.3 416.9 394.9 417.2 394.4 417.6C391.5 419.7 388.6 421.9 385.7 424C385.4 424.2 385 424.4 384.6 424.5C384.3 424.6 384.1 424.5 383.8 424.4C382.9 423.8 382.1 423 381.4 422.1C381.2 421.8 381.1 421.2 381.4 420.9C381.7 420.6 381.9 420.2 382.2 419.9C383 419.1 383.8 418.3 384.5 417.5C386.7 415.2 389.1 413.1 391.7 411.2C392.9 410.3 394.1 409.4 395.3 408.4C395.9 407.9 396.5 407.2 397 406.6C397.5 406.1 397.7 405.4 397.9 404.7C398.1 403.7 398.2 402.8 398.2 401.8C398.2 401 398.1 400.1 398.1 399.3C397.7 393.8 397 388.3 396.1 382.8C395.6 380.1 394.8 377.4 394 374.8C393.8 374.3 393.6 373.8 393.3 373.3C392.1 371.1 390.8 369 389.6 366.8C389.2 366.2 388.6 365.9 387.9 365.8C387.5 365.8 387.1 365.8 386.6 365.8C385.5 365.9 384.4 366 383.3 366.1C381.9 366.3 380.6 366.4 379.2 366.6C374.5 367.2 369.8 367.2 365.1 366.8C360.8 366.4 356.5 366.4 352.2 366.4C346.4 366.4 340.6 365.8 334.8 365.1C330.8 364.6 326.8 364.1 322.8 363.7C319.9 363.5 317 363.1 314.2 362.6C313.8 362.5 313.4 362.5 313 362.5C312.6 362.5 311.9 363 311.7 363.4C309.9 369.2 308.1 375 306.6 380.9C305.8 383.8 305.2 386.8 304.6 389.8C304.1 392.8 303.4 395.8 302.8 398.8C302.5 400.4 302.1 402 301.8 403.7C301.3 406.6 301.1 409.5 301.6 412.4C301.8 413.4 302.3 414.2 303.2 414.7C303.5 414.9 303.9 415.2 304.3 415.3C306.6 416.5 309.1 417.4 311.7 418C314.5 418.7 317.3 419.4 320.1 420.3C320.6 420.5 321.2 420.6 321.7 420.8C322.9 421.3 323.9 422 324.6 423.1C324.9 423.5 324.9 424.3 324.6 424.7C323.7 425.9 322.5 426.9 321.1 427.6C320.5 427.9 319.8 428.1 319.1 428C318.4 427.9 317.7 427.8 317 427.7C313.8 426.9 310.6 426 307.4 425.2C305.1 424.6 302.9 423.8 300.8 422.8C298.9 421.8 297.3 420.6 295.9 419C295 417.9 294.4 416.7 294.1 415.3C293.7 413.2 293.6 411.2 293.9 409.1C294.1 407.6 294.3 406.1 294.6 404.6C295.4 400.8 296.2 397 296.9 393.2C297.1 392.1 297.3 391 297.5 389.9C297.9 387.7 298.3 385.6 298.9 383.4C299.9 379.8 300.8 376.2 302 372.7C302.9 370.1 303.8 367.5 304.7 364.9C305 364 305.5 363.1 305.8 362.2C305.9 361.9 305.6 361.4 305.2 361.3C304.8 361.2 304.4 361 304 361C301.8 360.8 299.7 360.2 297.5 359.8C294.9 359.3 292.4 358.5 289.9 357.8C289 357.5 288.1 357.2 287.1 357.2C286.8 357.2 286.3 357.6 286.3 358C286.3 358.3 286.3 358.6 286.3 358.8C286.4 360.2 286.5 361.6 286.7 362.9C287.5 368.3 287.6 373.6 287.6 379C287.6 384.3 287.4 389.5 287.3 394.8C287.2 397.7 286.8 400.6 286.3 403.4C286 405.1 285.3 406.6 284.1 407.8C282.6 409.4 281 411 279.4 412.5C277.6 414.2 275.5 415.1 273.1 415.3C272.1 415.4 271.2 415.4 270.2 415.5C266.6 415.7 263 415.6 259.4 415.3C258.2 415.2 256.9 415 255.7 414.9C253.8 414.7 252.4 413.6 251.3 412.1C251 411.7 251 411 251.3 410.6C252.3 409.2 253.4 408 254.8 407.1C255.5 406.6 256.3 406.3 257.1 406.4C258.1 406.4 259 406.5 260 406.6C265 407.3 269.9 407.3 274.9 407C275.4 407 276 406.8 276.5 406.7C277.1 406.6 277.8 405.9 277.9 405.3C278.3 403.1 278.6 400.9 278.7 398.7C279.2 392.6 279.2 385.4 279.2 378.1ZM281.2 253.1C281.2 252.4 281.2 251.7 281 251C280.6 249.8 280.2 248.7 279.7 247.5C278.7 244.8 277.7 242.1 276.8 239.3C275.7 236.2 274.8 233 274.2 229.7C273.8 227.5 273.4 225.4 272.9 223.2C272.5 221.4 272.3 219.7 272 217.9C271.6 215.4 271.4 213 271.2 210.5C271.2 209.8 271.1 209.1 271 208.4C270.6 206.6 270.5 204.8 270.5 203C270.5 200.6 270.5 198.3 270.5 196C270.5 191.7 270.5 187.4 270.5 183.2C270.5 181.3 270.4 179.4 270 177.4C269.8 176.2 269.7 174.9 269.6 173.7C269.5 173 269.5 172.3 269.3 171.6C268.8 169.3 268.3 167 267.6 164.8C265.8 159.3 263.8 153.9 261.5 148.5C260.7 146.6 259.7 144.7 258.9 142.9C258.8 142.7 258.6 142.4 258.4 142.3C258.3 142.2 258.2 142.2 258 142.2C257.9 142.2 257.8 142.3 257.7 142.4C257.6 142.5 257.6 142.6 257.5 142.8C257.3 144.7 257 146.6 256.9 148.6C256.7 151.5 256.1 154.4 255.6 157.2C255 160.3 254.1 163.4 253 166.4C251.8 169.6 250.6 172.9 249.8 176.2C249.2 178.5 248.6 180.7 247.9 183C246.9 186.3 246.1 189.7 245.5 193.1C245.4 193.6 245.3 194.2 245.3 194.7C244.9 200.3 245.6 205.7 246.2 211.2C246.2 211.3 246.3 211.5 246.3 211.6C246.9 214.6 247.7 217.5 248.7 220.4C249.4 222.4 250.3 224.2 251.4 226C253 228.4 254.7 230.8 256.8 232.7C257 232.9 257.2 233.1 257.4 233.3C260.1 236.1 262.8 238.9 265.5 241.6C265.8 241.9 266.1 242.2 266.4 242.5C269.3 244.8 272.2 247.2 275.4 249.2C276.9 250.2 278.4 251.1 279.9 252.1C280.4 252.3 280.8 252.8 281.2 253.1ZM360.1 356.9C361.1 356.9 362 356.9 363 357C366.2 357.2 369.4 357.1 372.5 356.8C375.8 356.5 379.1 356.3 382.4 356C386.4 355.6 390.4 355.3 394.4 355.2C395.5 355.2 396.6 355.1 397.7 355.1C399 355.1 400.2 355 401.4 354.7C403.8 354.2 406.3 353.8 408.8 353.4C409.9 353.2 411 353 412 352.7C415.3 351.7 418.7 351 422.1 350.5C424.3 350.1 426.4 349.5 428.5 348.8C431 347.9 433.5 347.1 436 346.4C437.5 346 438.9 345.6 440.4 345.3C442.2 344.9 443.8 344.2 445.5 343.5C447.3 342.7 449 341.7 450.6 340.7C452.7 339.3 454.7 337.9 456.8 336.5C457.7 335.9 458.6 335.2 459.5 334.6C462.1 332.7 462.4 332.4 463.9 329.7C464.5 328.6 465.1 327.5 465.7 326.4C468.3 322 470.3 317.3 472 312.4C473.2 309 473.9 305.5 474.1 301.8C474.2 299.9 474.4 297.9 474.5 296C474.6 294.6 474.7 293.2 474.8 291.8C475 289 474.8 286.3 474.2 283.5C474 282.7 473.9 281.9 473.7 281.1C472.8 277.5 471.8 273.9 470.7 270.3C469 264.6 466.5 259.2 463.2 254.2C462.6 253.3 461.9 252.4 461.3 251.5C458.5 247 455.2 243 451.8 238.9C450.5 237.4 449.1 236.1 447.5 235.1C441.4 231.4 435.3 227.4 429 224C427.5 223.2 426.1 222.5 424.5 221.9C417.5 219 410.4 216.2 403.2 213.7C401.9 213.2 400.6 212.8 399.2 212.5C395.6 211.6 391.9 211 388.2 210.6C386 210.4 383.8 210.1 381.6 209.8C379.5 209.5 377.5 209.3 375.4 209C374.6 208.9 373.7 208.9 372.9 208.7C369.5 208.1 366 208 362.6 207.9C361.3 207.9 360.1 207.8 358.9 207.7C357.1 207.7 355.3 207.5 353.5 207.3C352.1 207.1 350.8 206.9 349.4 206.9C346.4 206.9 343.3 206.9 340.3 207.1C340 207.1 339.7 207.2 339.5 207.3C339.3 207.5 339.1 207.7 339.1 207.9C339 208.5 339.3 209 339.5 209.5C340.8 212.3 342.1 215 343.3 217.8C344.7 221.1 346.2 224.4 347.6 227.7C349.8 232.6 352.3 237.4 355.2 242C356 243.3 356.8 244.6 357.6 245.9C358.5 247.3 359.3 248.7 360.2 250.1C362.3 253.4 364.6 256.4 367.2 259.3C369.4 261.8 371.9 263.9 374.7 265.8C378.1 268.2 381.7 270.3 385.5 271.9C386.8 272.5 388 273 389.3 273.6C390.5 274.1 391.4 274.9 392.2 275.9C392.5 276.3 392.5 277 392.2 277.4C390.8 278.8 389.5 280.1 388.1 281.5C387.7 281.9 387.2 282.1 386.6 282.1C381.8 282.5 376.9 282.5 372.1 282C368.4 281.7 364.7 281.4 360.9 281.2C360.1 281.1 359.2 281.2 358.4 281.2C356.9 281.2 355.4 281.2 353.8 281.2C351.9 281.3 349.9 281.1 348 280.9C346.8 280.7 345.5 280.5 344.3 280.2C343.8 280 343.2 280 342.7 279.9C342.4 279.9 342.1 279.9 341.9 280.1C341.8 280.3 341.7 280.7 341.9 280.9C342.8 282.5 343.9 283.9 345 285.3C345.3 285.7 345.6 286.2 345.9 286.7C346.1 287 346 287.2 345.9 287.5C344.4 289.5 342.6 291.2 340.6 292.8C340.5 292.9 340.3 292.9 340.2 292.9C340.1 292.9 339.9 293 339.8 292.9C338 292.3 336.1 291.7 334.4 290.9C332.3 289.9 330.1 289 327.9 288.1C325.5 287.1 323.1 286.1 320.7 284.8C317.8 283.2 314.9 281.5 312 279.9C309.3 278.4 306.9 276.6 304.6 274.5C303.7 273.7 302.7 272.9 301.8 272.1C301.5 271.8 301.2 271.6 300.8 271.3C300.4 271.1 300 271 299.6 271.2C298.8 271.6 298.1 271.7 297.2 271.4C296.1 270.9 294.9 270.5 293.7 270.2C292.5 269.9 291.3 269.4 290.2 268.9C287.1 267.4 284.1 265.6 281.2 263.7C278.9 262.2 276.6 260.7 274.3 259.1C271.4 257.2 268.6 255.2 265.9 253C261.6 249.5 257.7 245.6 254.1 241.4C252.7 239.7 251.3 238 249.9 236.2C249.6 235.8 249.2 235.4 248.7 235.1C248.4 234.9 248.2 234.9 247.9 235.1C246.8 235.7 246.1 236.8 245.1 237.5C244.7 237.8 244 237.8 243.6 237.4C243.3 237.1 243 236.9 242.7 236.6C239.7 233.4 236.8 230 234.2 226.4C232.8 224.5 231.6 222.5 230.7 220.3C229.7 217.9 228.5 215.5 227.5 213.1C226.4 210.6 225.5 208 224.6 205.3C224.3 204.5 224.1 203.7 224 202.9C222.9 198.1 221.8 193.2 220.8 188.3C220.5 186.5 220 184.8 219.4 183.1C218.8 181.4 218.4 179.7 218.1 177.9C217.8 175.8 217.5 173.8 217 171.8C216.5 169.2 216.3 166.6 216.4 164C216.4 161.4 216.5 158.7 216.5 156.1C216.5 154.4 216.5 152.8 216.5 151.1C216.5 149.3 216.6 147.5 216.8 145.7C217.4 141.5 217.6 137.2 218.1 132.9C218.2 132.2 218.2 131.5 218.2 130.8C218.4 127 217.6 123.4 215.9 120C215 118.1 214 116.3 213.2 114.4C212 111.7 210.4 109.3 208.8 106.9C208.4 106.3 207.9 105.8 207.4 105.4C206.9 104.9 206.3 104.6 205.8 104.1C204.9 103.4 203.9 103 202.8 102.7C202.1 102.5 201.4 102.5 200.7 102.4C198.8 102.1 196.9 101.9 194.9 101.7C193.5 101.5 192.2 101.3 190.8 100.9C187.5 99.9 184.1 99.2 180.7 98.7C177.4 98.2 174.1 97.7 170.8 97.6C166.8 97.5 162.8 97.1 158.8 96.8C157 96.6 155.2 96.4 153.4 96.2C150.7 95.8 147.9 95.5 145.1 95.4C140.3 95.3 135.4 95.3 130.6 95.6C125.1 95.9 119.6 96.4 114.1 97C112.2 97.2 110.3 97.4 108.3 97.5C106.4 97.6 104.5 97.8 102.5 98.2C100.6 98.5 98.7 98.8 96.8 99.2C91.1 100.2 85.4 101.3 79.8 103C79 103.2 78.2 103.5 77.4 103.7C74.8 104.5 72.1 105.3 69.4 105.9C66 106.7 62.8 107.8 59.6 109.3C56.1 111 52.6 112.6 49.1 114.3C47.6 115 46.2 115.9 44.9 117C43.1 118.5 41.2 119.9 39.4 121.4C37.5 123 35.7 124.8 34.1 126.7C32.3 128.8 30.4 130.8 28.5 132.8C27.3 134 26.2 135.2 25.1 136.4C23.9 137.7 22.7 139.1 21.7 140.6C19.7 143.6 17.7 146.6 16.3 149.9C15.9 150.8 15.5 151.6 15 152.5C14.1 154.5 13.1 156.5 12.2 158.5C10.9 161.4 10.3 164.6 10.1 167.8C10 168.8 10 169.7 10 170.7C10 171.5 9.9 172.4 9.8 173.2C9.4 175.5 9.5 177.9 9.4 180.2C9.3 182 9.6 183.8 10.2 185.5C10.7 187.2 11.5 188.9 12.4 190.4C13.2 191.8 14 193.3 14.9 194.7C16.3 196.9 17.6 199.2 19.2 201.3C20.6 203.2 22.2 204.9 24 206.4C25.6 207.7 27.3 209 28.9 210.3C32.7 213.4 36.9 215.7 41.5 217.4C43.1 218 44.6 218.6 46.2 219.1C47.4 219.5 48.6 219.9 49.7 220.2C51.9 220.9 54.2 221.5 56.5 222.1C57.8 222.5 59.2 222.9 60.5 223.2C63.5 223.9 66.4 224.5 69.5 224.5C72.8 224.6 76.1 224.7 79.5 224.8C82.4 224.8 85.3 224.9 88.2 224.8C92.5 224.6 96.8 224.4 101 224C105.4 223.6 109.8 222.9 114.1 222.2C117.8 221.6 121.4 220.7 125 219.6C126.1 219.3 127.1 219 128.2 218.7C132.3 217.6 136.5 216.8 140.7 215.9C142.7 215.5 144.8 215.2 146.8 214.9C152.2 214.3 157.5 213.6 162.8 212.5C165.5 211.9 168.2 211.6 171 211.2C175.5 210.7 179.8 211.1 184.1 212.4C185.8 212.9 187.5 213.6 189.2 214.1C191.4 214.8 193.2 216 194.8 217.6C196.2 219 197.5 220.4 198.9 221.8C201 223.9 202.8 226.1 204.4 228.5C205.4 230 206.5 231.4 207.6 232.8C208.7 234.1 209.5 235.5 210.1 237.1C211 239.3 211.9 241.4 213.1 243.5C213.7 244.6 214.2 245.7 214.6 246.9C215.3 249 216.2 251 217.4 252.9C218.5 254.7 219.3 256.6 219.9 258.6C220.4 260 220.9 261.5 221.4 262.9C222.6 265.9 223.8 268.8 225 271.7C225.7 273.4 226.4 275 227.3 276.6C229 279.8 230.6 283 231.8 286.4C232.5 288.5 233.3 290.5 234.1 292.6C234.7 294.2 235.2 295.7 236 297.2C237.3 299.8 238.5 302.4 239.7 305.1C240.8 307.4 242.1 309.5 243.6 311.4C244.8 312.9 245.9 314.5 247.1 316C248.3 317.5 249.5 319 250.7 320.5C252.7 323 255 325.2 257.5 327.2C259.8 329 262.1 330.8 264.4 332.5C265.4 333.2 266.4 333.9 267.5 334.6C273.5 338.4 279.9 341.2 286.7 343.2C288.4 343.7 290.2 344.1 291.9 344.5C294.3 345.1 296.8 345.6 299.1 346.4C302.5 347.6 306 348.6 309.4 349.5C315.1 351.1 320.9 352.4 326.7 353.6C328.3 353.9 330 354.2 331.6 354.5C334.6 355 337.7 355.2 340.7 355.5C345.2 356 349.8 356.3 354.4 356.2C356.8 356.8 358.5 356.9 360.1 356.9ZM510.7 208.6C512.2 208.5 513.7 208.5 515.3 208.5C517.4 208.5 519.4 208.9 521.4 209.5C525.4 210.8 529.1 212.7 531.9 215.9C532.4 216.5 533 217.2 533.5 217.8C534.6 219.4 535.7 221 536.8 222.6C538.4 225.2 540 227.7 541.6 230.4C543.3 233.1 544.7 235.9 546 238.9C546.6 240.3 547.2 241.7 547.8 243.1C549.2 246.4 550.8 249.6 552.6 252.8C554.8 256.9 557.1 261 559.3 265.2C561.2 268.8 563.6 271.9 566.3 274.9C567.5 276.2 568.9 277.4 570.3 278.5C573.4 280.8 576.6 283.1 579.8 285.2C581.1 286.1 582.4 286.8 583.7 287.5C586.2 288.7 588.6 290 591.1 291.2C593 292.1 594.9 292.9 596.8 293.6C598.7 294.3 600.8 294.9 602.9 294.9C605.3 295 607.6 295 609.9 295.1C612.8 295.1 615.7 294.6 618.5 293.7C618.6 293.7 618.7 293.6 618.9 293.5C619.2 293.3 619.4 293.1 619.3 292.9C619.3 292.6 619.1 292.4 618.8 292.3C617.2 291.8 615.6 291.4 614.1 290.6C610.5 288.6 606.7 286.8 603.2 284.6C601.1 283.3 599 281.9 596.9 280.5C593.6 278.4 590.6 275.9 587.8 273.3C584.8 270.4 582.1 267.3 579.9 263.7C577.8 260.2 575.6 256.6 573.4 253.1C572.5 251.7 571.7 250.2 570.8 248.9C569.5 247 568.3 244.9 567.2 242.8C565.8 240.1 564.3 237.4 562.9 234.8C561.6 232.5 560.6 230.1 559.7 227.6C559.3 226.6 559 225.5 558.6 224.5C557 220.4 555.2 216.3 552.9 212.5C551.4 210 550 207.5 548.5 205C546.9 202.3 545 199.7 542.6 197.5C541 196 539.4 194.4 537.8 192.9C533.9 189.3 535.2 190.3 530.3 187.8C525.7 185.4 520.8 184.2 515.6 183.9C514.5 183.9 513.4 183.7 512.3 183.7C511.9 183.7 511.5 183.4 511.2 183.2C510.4 182.6 509.7 181.9 509.3 181C509.2 180.8 509.2 180.4 509.3 180.2C509.4 179.8 509.6 179.4 509.9 179.1C510.6 178.3 511.4 177.5 512.2 176.7C513.6 175.2 515.2 173.8 516.9 172.6C517.6 172.1 518.2 171.6 518.8 171C518.9 170.9 518.9 170.8 518.9 170.6C518.9 170.3 518.7 170.1 518.4 170.2C516.3 170.9 514.2 171.5 512.1 172.1C510.1 172.7 508.1 173.3 506.2 174C503.9 174.9 501.6 175.8 499.4 177.1C496 179.2 492.6 181.3 489.6 184C486.7 186.6 483.8 189.2 480.9 191.7C479.5 193 478.2 194.4 476.9 195.9C475.3 197.8 473.8 199.8 472.2 201.7C469.4 205 467.1 208.6 465.1 212.4C463 216.2 461.3 220.1 459.8 224.1C459.5 224.9 459.3 225.7 459.1 226.5C459.1 226.6 459.2 226.8 459.3 226.8C459.4 226.9 459.6 226.9 459.7 226.8C460 226.6 460.4 226.4 460.7 226.1C462.7 224 465.1 222.3 467.6 220.8C469.3 219.8 471 218.9 472.7 218C477.2 215.6 482 213.7 486.8 211.9C488.9 211.1 491 210.5 493.2 210C497.1 209.2 501.1 208.9 505.1 208.4C505.9 208.3 506.8 208.3 507.6 208.3C508.4 208.6 509.6 208.6 510.7 208.6ZM279.3 189.3C279.2 191.5 279.2 193 279.2 194.5C279.1 198.5 279.2 202.5 279.8 206.5C280 207.7 280 209 280.1 210.2C280.1 210.9 280.1 211.6 280.2 212.3C280.8 216 281.2 219.7 282 223.3C282.5 225.3 282.7 227.4 283.3 229.4C285.1 235.7 287.2 241.8 289.7 247.8C290 248.4 290.3 249 290.7 249.6C290.9 250 291.3 250.2 291.7 250.2C292.1 250.2 292.5 250.2 292.9 250.2C293.8 250.2 294.5 250.5 295.2 251C295.5 251.3 295.8 251.6 296.1 251.8C297.4 253 298.5 254.5 299.5 256C301 258 302.6 259.9 304.4 261.6C305.4 262.6 306.4 263.5 307.4 264.5C310.3 267.3 313.5 269.8 316.9 271.9C319.9 273.7 322.9 275.3 325.9 277C326.1 277.1 326.4 277.2 326.7 277.3C326.8 277.3 327 277.3 327.1 277.3C327.4 277.2 327.6 277 327.5 276.7C327.1 275.2 326.2 274 325.3 272.7C324.7 271.9 324.3 271.1 323.9 270.2C323.5 269.3 323.1 268.4 322.7 267.6C320.5 263.6 318.5 259.5 317 255.2C316.4 253.5 315.8 251.8 315.1 250.2C313.7 246.9 312.8 243.4 312 239.9C311.4 237.3 310.8 234.8 310.1 232.3C309.2 229.3 308.2 226.2 307.5 223.1C306.8 219.9 305.8 216.7 305.1 213.4C305 213.1 305 212.9 304.9 212.6C304.1 208.7 303.3 204.8 302.5 200.8C302 198.5 301.5 196.2 300.8 193.9C300.4 192.5 300 191 299.7 189.5C299.4 187.4 298.9 185.4 298.5 183.4C297.9 180.7 297.2 178 296.3 175.4C295 171.9 294 168.3 293 164.7C292.1 161.4 291 158.1 289.8 154.8C288.8 152.4 287.6 150 286.5 147.6C285.3 145.1 284 142.6 282.6 140.3C280.2 136.4 277.8 132.5 275.3 128.7C273.8 126.4 272.3 124.1 270.8 121.8C270.3 121.1 269.9 120.4 269.4 119.7C266.3 115.6 262.8 111.9 258.9 108.6C257.4 107.4 255.9 106.2 254.4 104.9C252.3 102.9 249.9 101.2 247.5 99.5C245.3 98 242.9 96.6 240 95.2C239.9 95.2 239.8 95.3 239.7 95.4C239.6 95.5 239.6 95.6 239.6 95.7C239.6 96 239.7 96.2 239.9 96.4C242.8 99.2 245.2 102.4 247.2 105.9C249.7 110.1 252.3 114.1 255.1 118.1C255.5 118.7 255.9 119.2 256.2 119.9C257.7 122.4 259.3 124.8 261 127.2C264.2 131.9 267 136.8 269.3 142C271.5 146.9 273.2 152.1 275.1 157.1C275.5 158.3 275.9 159.5 276.3 160.6C277.4 164 278.3 167.5 278.6 171.1C278.7 171.9 278.8 172.7 278.9 173.6C279.3 175.7 279.4 177.7 279.4 179.8C279.2 183.3 279.3 186.6 279.3 189.3ZM477.1 238.9C476.1 239 475.2 239.1 474.2 239.2C473.8 239.2 473.4 239.4 473 239.5C472.8 239.6 472.5 239.8 472.3 240C472.1 240.1 472.4 240.9 472.6 241.1C473 241.5 473.4 241.9 473.7 242.3C474.5 243.1 475.4 243.7 476.6 243.8C477.7 243.9 478.8 244.2 479.9 244.3C482.9 244.7 485.8 245.6 488.7 246.5C491.8 247.5 494.5 249.1 496.9 251.2C497.5 251.7 498.2 252.3 498.8 252.8C502.3 256.1 505.6 259.7 508.6 263.5C511.8 267.7 514.9 271.9 517.9 276.3C519 278 520.2 279.7 521.4 281.4C524.8 286 528.1 290.6 531.3 295.2C533.8 298.9 536.8 302.1 540.1 305C546.8 310.9 554.2 315.6 562.6 318.7C564 319.2 565.5 319.7 566.9 320.3C569.3 321.2 571.7 321.6 574.1 322C578.2 322.6 582.1 322.2 585.8 320.5C587.1 319.9 588.4 319.4 589.6 318.9C591.6 318 593.7 317.2 595.7 316.3C596.7 315.8 597.7 315.3 598.6 314.8C598.7 314.8 598.7 314.5 598.6 314.4C598.6 314.3 598.4 314.2 598.3 314.2C595.4 314.3 592.5 314.4 589.6 314.1C586.9 313.8 584.1 313.7 581.3 313.4C579.8 313.2 578.3 313 576.8 312.8C572.5 312.2 568.5 310.6 564.8 308.3C562.1 306.7 559.6 304.6 557 302.8C556.5 302.5 556.1 302.1 555.7 301.7C554.3 300.4 552.9 299.1 551.5 297.7C548.1 294.2 545.1 290.4 542.9 286.1C542.2 284.7 541.4 283.4 540.7 282.1C540.1 281 539.5 279.9 539 278.8C537.3 275.3 535.6 271.9 534 268.3C533.2 266.5 532.4 264.8 531.5 263.1C529.2 259 526.4 255.2 522.5 252.4C520.9 251.3 519.3 250.1 517.7 249.2C515.7 248 513.6 246.9 511.4 246.1C508 244.9 504.6 243.8 501.2 242.7C499.1 242 496.9 241.6 494.7 241.4C493.6 241.3 492.5 241.1 491.4 241C487.9 240.4 484.3 239.8 480.7 239.4C479.8 239 478.5 238.9 477.1 238.9ZM226.9 156.4C226.8 156.4 226.8 156.4 226.9 156.4C226.8 158.9 226.6 161.4 226.7 163.9C226.8 169.2 226.9 174.4 227.6 179.6C227.8 181.1 228 182.6 228.3 184.1C229.3 189.1 230.5 194.1 231.7 199C232.3 201.4 233.1 203.8 234.1 206C234.2 206.3 234.4 206.5 234.7 206.4C234.8 206.4 234.9 206.2 234.9 206.1C235.2 203.4 235.7 200.7 235.9 197.9C235.9 197.4 236.1 196.8 236.2 196.3C236.6 193.8 237.2 191.4 237.8 189C238.7 185.5 239.8 182.1 240.5 178.6C241 176.3 241.7 174.1 242.5 171.9C242.9 170.9 243.3 169.8 243.6 168.8C244.5 166.2 245.2 163.5 245.8 160.8C246.4 158.1 246.6 155.3 247.1 152.6C247.3 151.9 247.2 151.2 247.3 150.5C247.6 146.6 247.4 142.8 247.1 138.9C246.9 136.4 246.5 134 245.6 131.6C245.3 130.8 245.1 130 244.8 129.2C243.9 126 242.5 123 240.7 120.2C238.7 117.2 237 114 235.6 110.8C234.2 107.7 232.7 104.6 230.9 101.6C228.5 97.4 225.7 93.5 222.8 89.6C221.3 87.5 219.5 85.5 217.7 83.6C217.4 83.3 217.1 83 216.8 82.7C216.2 82.1 215.4 82.2 215.1 82.9C214 85.1 212.8 87.3 211.6 89.5C210.7 91.1 209.8 92.6 208.9 94.1C208.7 94.4 208.8 94.6 208.9 94.9C209.1 95.2 209.4 95.6 209.6 95.9C210.9 97.4 212.2 98.8 213 100.6C213.6 101.7 214.4 102.7 215.2 103.5C215.9 104.2 216.6 104.9 217.3 105.6C218.5 106.8 219.4 108.2 220 109.7C220.3 110.5 220.6 111.3 220.8 112C221.8 114.9 222.7 117.8 223.7 120.6C224.1 121.6 224.4 122.7 224.6 123.8C224.9 125.1 225.2 126.5 225.4 127.9C225.9 130.8 226.6 133.6 226.6 136.5C227 139 227 141.5 226.9 143.9C227.2 148.1 227 152.2 226.9 156.4ZM359.1 273C360.8 273.1 362.3 273.2 363.8 273.2C364.6 273.2 365.5 273.3 366.3 273.3C366.6 273.3 366.8 273.1 366.9 272.8C366.9 272.7 366.9 272.5 366.8 272.4C366.5 272.1 366.3 271.7 366 271.5C362.9 269.1 360.3 266.3 357.7 263.4C355.9 261.5 354.3 259.4 352.8 257.2C349.8 252.9 347.3 248.3 344.4 243.9C343.9 243.1 343.4 242.2 343 241.4C340.8 237.4 338.9 233.2 337 229.1C334.5 223.6 332.2 217.9 329.5 212.5C328.8 211.1 328.3 209.7 327.7 208.3C326.9 206.4 326.2 204.4 325.4 202.5C324.9 201.4 324.5 200.2 324 199.1C321.4 193.6 318.7 188.1 315.8 182.8C314.2 179.9 312.8 176.9 311.4 173.9C311 173 310.6 172.1 310.2 171.2C308.8 168.4 307 166.1 304.5 164.2C304.3 164 304 164 303.8 164.2C303.7 164.3 303.6 164.5 303.7 164.6C303.9 165.8 304.2 167 304.7 168.2C305.3 169.9 306 171.6 306.5 173.3C307.6 176.7 308.5 180.2 309.1 183.7C309.5 186 310 188.3 310.6 190.6C311.7 194.5 312.5 198.4 313.3 202.3C314 205.8 314.7 209.3 315.7 212.8C316.2 214.4 316.6 216 317 217.6C317.6 220.2 318.3 222.7 319.1 225.2C320.4 229.2 321.4 233.2 322.4 237.2C323.4 241.1 324.6 244.9 326.2 248.6C326.7 249.6 327 250.7 327.4 251.7C328.4 254.6 329.6 257.4 331 260.1C332.1 262.2 333.2 264.2 334.4 266.3C334.6 266.7 334.8 267 335 267.4C335.3 267.9 335.7 268.3 336.3 268.5C337.4 269 338.6 269.4 339.8 269.8C342.6 270.6 345.4 271.5 348.2 272.2C350.4 272.8 352.5 273.1 354.7 273.2C356.2 273 357.8 273 359.1 273ZM507.4 218.2C506 218.2 504.2 218.2 502.4 218.3C501 218.4 499.7 218.7 498.3 218.8C497.6 218.9 496.9 218.9 496.2 219C492.6 219.4 489.1 220 485.7 221.2C481.7 222.6 477.7 224.3 473.8 226.1C471.4 227.2 469.1 228.5 466.8 229.7C466.1 230.1 465.4 230.6 464.7 231C464.2 231.3 464.1 232 464.4 232.4C465.1 233.3 465.9 234 466.8 234.6C467.3 234.9 467.8 235.1 468.4 234.9C468.9 234.7 469.4 234.5 470 234.3C472.2 233.4 474.4 232.7 476.8 232.4C477.5 232.3 478.2 232.1 478.8 232C479.6 231.9 480.4 231.7 481.3 231.7C483.1 231.6 484.9 231.6 486.7 231.6C487.8 231.6 488.9 231.7 490 231.9C493.1 232.5 496.3 232.7 499.4 233.2C501.6 233.5 503.7 234 505.9 234.6C508.1 235.3 510.4 236 512.6 236.7C515.4 237.6 518 238.8 520.6 240.1C522.7 241.2 524.6 242.5 526.6 243.8C532.3 247.7 536.7 252.7 540 258.8C541.2 261 542.3 263.2 543.4 265.5C545.7 270.5 548 275.5 551 280.2C551.4 280.8 551.7 281.4 552 282C554.6 287.1 558.5 291.3 562.9 294.9C564.7 296.4 566.7 297.7 568.6 299C569.7 299.8 570.9 300.5 572.2 301.1C576.9 303.1 581.8 304.6 587 304.7C588.5 304.7 590 304.8 591.5 305C594 305.4 596.5 305.4 598.9 305.3C599 305.3 599.2 305.2 599.3 305.2C599.4 305.1 599.5 305 599.5 304.9C599.5 304.8 599.4 304.6 599.3 304.6C598.3 304.4 597.4 304.4 596.4 304.2C594.5 303.7 592.7 303.2 590.8 302.5C587.5 301.2 584.3 299.6 581 298C578.6 296.9 576.2 295.8 574.1 294.2C570 291.8 566.4 288.8 562.6 286C562.1 285.7 561.8 285.3 561.3 284.9C557 281 553.3 276.5 550.3 271.5C549 269.3 547.9 267.2 546.7 265C545.6 262.9 544.6 260.8 543.4 258.8C540.7 254.1 538.3 249.3 536.4 244.3C536.3 244 536.2 243.8 536.1 243.5C535.4 241.7 534.5 240 533.5 238.3C531.4 234.6 529.1 230.9 526.9 227.3C526.3 226.4 525.6 225.5 525 224.6C523.8 222.7 522.1 221.3 520 220.4C518.9 219.9 517.8 219.3 516.6 219C514.7 218.5 512.8 218.1 510.9 218.2C510 218.2 508.9 218.2 507.4 218.2ZM216.1 56.7C216.1 54.2 215.8 52.1 215 49.9C214.7 48.9 213.7 48.4 212.7 48.7C212.4 48.8 212.2 48.8 211.9 48.9C208.2 50.5 204.7 52.5 201.8 55.3C199.6 57.4 197.3 59.5 195.7 62C195.3 62.6 194.8 63.1 194.4 63.6C193 65.3 191.7 67.1 190.6 69C189.1 71.5 187.5 73.9 186 76.4C184.5 78.7 183.2 81.2 182 83.7C181.8 84.1 181.7 84.5 181.6 84.9C181.5 85.2 181.9 85.8 182.2 85.8C184.1 86 186 86.3 188 86.5C188.4 86.5 188.8 86.5 189.2 86.5C189.6 86.4 190 86.3 190.2 85.9C190.5 85.3 190.8 84.7 191.1 84C191.7 82.6 192.3 81.2 193 79.8C194.6 76.3 197.1 73.6 200 71.2C200.4 70.9 201 70.9 201.5 71.3C201.7 71.5 201.9 71.6 202.1 71.9C202.5 72.4 202.6 73 202.3 73.4C200.7 75.8 199.3 78.4 197.9 80.9C197 82.6 195.9 84.2 194.5 85.6C194.2 85.9 194 86.2 193.8 86.6C193.7 86.9 193.8 87.2 194 87.3C197 88.7 200.2 89.6 203.2 91C203.7 91.2 204.3 91 204.7 90.6C205.5 89.9 206.2 89 206.8 88C208.9 84.4 210.7 80.7 211.8 76.7C213.1 71.9 214.3 67.1 215.5 62.2C215.6 61.8 215.7 61.4 215.8 61C215.9 59.5 216.1 58 216.1 56.7ZM109.3 66.2C109.2 69.4 109.4 72.5 109.9 75.7C110.4 78.7 111 81.6 111.7 84.6C111.8 85.3 112.5 85.8 113.2 85.7C115.1 85.4 117 85.1 118.9 84.8C119.4 84.7 120 84.6 120.5 84.4C121.2 84.2 121.8 83.8 122 83.1C122.7 81.2 123.3 79.2 124 77.3C124.3 76.5 124.1 75.7 123.8 74.9C123.3 73.5 122.5 72.2 121.6 70.9C120.2 68.9 118.8 66.8 117.6 64.7C117.1 63.9 116.6 63.1 116 62.3C115.2 61.2 114.3 60.1 113.3 59.2C112.7 58.6 112 58.2 111.1 58.1C110.6 58 109.9 58.4 109.8 58.9C109.7 59.4 109.5 60 109.5 60.5C109.5 62.4 109.4 64.3 109.3 66.2ZM166.2 78.7C166 77.6 165.6 76.4 165.2 75.2C165 74.7 164.7 74.2 164.3 73.8C162.6 72 160.8 70.2 159.1 68.5C158.5 67.9 157.9 67.4 157.2 66.9C153.5 64.2 150.1 61.2 146.8 58.1C145.5 56.9 144.1 55.7 142.8 54.5C142.5 54.2 142.2 54 141.8 53.7C141.5 53.4 140.9 53.5 140.7 53.8C139.5 55.9 138.8 58.1 138.1 60.3C138 60.7 138.1 61.1 138.4 61.4C139 62 139.7 62.5 140.3 62.9C144.4 65.7 148.6 68.4 152.6 71.3C155.7 73.6 158.9 75.8 162.1 78C162.7 78.4 163.2 78.8 163.8 79.1C164.1 79.3 164.5 79.5 164.9 79.7C165.1 79.8 165.4 79.8 165.7 79.7C166.1 79.8 166.3 79.2 166.2 78.7ZM148.1 84C148.4 84 148.7 84 148.9 84C149 84 149.2 84 149.3 84C149.6 84 149.8 83.8 149.9 83.6C150 83.3 149.9 83.1 149.7 82.9C147.3 80.8 145 78.6 142.6 76.5C140.5 74.7 138.4 72.9 136.3 71.1C136.1 70.9 135.9 70.8 135.6 70.6C135.1 70.3 134.4 70.3 134.2 70.9C133 73.4 131.9 75.9 130.8 78.4C130.5 79.2 130.2 79.9 129.9 80.7C129.7 81.1 129.7 81.5 129.5 81.9C129.4 82.3 129.9 83.1 130.3 83.2C131 83.2 131.7 83.3 132.4 83.3C137.4 83.4 142.3 83.4 147.3 84C147.5 84 147.8 84 148.1 84ZM160.1 54.6C160 54 159.8 53.1 159.6 52.2C159.3 50.8 159.1 49.5 158.8 48.2C158.6 47.5 158.3 46.9 157.8 46.4C154.6 43.5 151.4 40.7 148.4 37.7C148.3 37.6 148.2 37.5 148.1 37.5C147.8 37.2 147.2 37.3 147.1 37.7C146.2 39.6 145.7 41.6 145 43.5C144.8 44.1 145.1 44.6 145.5 45C145.6 45.1 145.7 45.2 145.8 45.3C149.1 48 152.4 50.7 155.7 53.5C156.7 54.3 157.6 55 158.6 55.8C158.8 56 159.1 56.1 159.3 56.2C159.4 56.2 159.6 56.2 159.7 56.2C160 56.2 160.1 56 160.2 55.6C160.1 55.3 160.1 55.1 160.1 54.6ZM186.2 66.2C186.2 65.7 186 65.6 185.7 65.5C183.2 65 180.8 65.2 178.4 65.8C177.1 66.1 175.8 66.7 174.7 67.6C174.3 67.9 174 68.6 174.2 69.1C175.2 72.4 176.3 75.6 177.6 78.8C177.7 79 178 79.3 178.2 79.3C178.4 79.3 178.7 79.1 178.9 78.9C179.8 77.5 180.6 76.1 181.5 74.7C183 72.2 184.5 69.8 186 67.3C186 66.9 186.1 66.5 186.2 66.2ZM543.7 321.1C543.4 321.1 543.2 321.1 542.9 321.2C542.6 321.3 542.4 321.6 542.6 321.9C543.7 324.9 545.6 327.5 547.7 329.9C548.9 331.2 550.2 332.4 551.5 333.7C551.6 333.8 551.7 333.8 551.9 333.8C552 333.8 552.2 333.8 552.3 333.7C552.6 333.5 552.7 333.2 552.6 333C551.8 331.5 551 330.1 550.3 328.6C549.5 327 549 325.3 548.4 323.6C548.2 323 547.7 322.4 547 322.2C545.9 321.8 544.9 321.2 543.7 321.1ZM155 27.9C154.3 24.9 154 22.4 153.3 20C153.1 19.3 152.9 18.7 152.6 18.1C152.6 18 152.4 17.9 152.3 17.9C152 17.9 151.8 18.1 151.7 18.4C151.4 19.7 151.2 21.1 150.9 22.5C150.6 24 150.3 25.5 149.9 27C149.7 27.9 150 28.6 150.7 29.2C152 30.2 153.3 31.2 154.8 31.9C154.9 31.9 155.1 31.9 155.2 31.9C155.3 31.8 155.4 31.7 155.4 31.6C155.3 30 155.1 28.6 155 27.9Z" fill="black"/>
  <path d="M109.3 66.2C109.2 69.4 109.4 72.5 109.9 75.7C110.4 78.7 111 81.6 111.7 84.6C111.8 85.3 112.5 85.8 113.2 85.7C115.1 85.4 117 85.1 118.9 84.8C119.4 84.7 120 84.6 120.5 84.4C121.2 84.2 121.8 83.8 122 83.1C122.7 81.2 123.3 79.2 124 77.3C124.3 76.5 124.1 75.7 123.8 74.9C123.3 73.5 122.5 72.2 121.6 70.9C120.2 68.9 118.8 66.8 117.6 64.7C117.1 63.9 116.6 63.1 116 62.3C115.2 61.2 114.3 60.1 113.3 59.2C112.7 58.6 112 58.2 111.1 58.1C110.6 58 109.9 58.4 109.8 58.9C109.7 59.4 109.5 60 109.5 60.5C109.5 62.4 109.4 64.3 109.3 66.2Z" fill="white"/>
  <path d="M148.1 84C148.4 84 148.7 84 148.9 84C149 84 149.2 84 149.3 84C149.6 84 149.8 83.8 149.9 83.6C150 83.3 149.9 83.1 149.7 82.9C147.3 80.8 145 78.6 142.6 76.5C140.5 74.7 138.4 72.9 136.3 71.1C136.1 70.9 135.9 70.8 135.6 70.6C135.1 70.3 134.4 70.3 134.2 70.9C133 73.4 131.9 75.9 130.8 78.4C130.5 79.2 130.2 79.9 129.9 80.7C129.7 81.1 129.7 81.5 129.5 81.9C129.4 82.3 129.9 83.1 130.3 83.2C131 83.2 131.7 83.3 132.4 83.3C137.4 83.4 142.3 83.4 147.3 84C147.5 84 147.8 84 148.1 84Z" fill="#EE657A"/>
  <path d="M166.2 78.7C166 77.6 165.6 76.4 165.2 75.2C165 74.7 164.7 74.2 164.3 73.8C162.6 72 160.8 70.2 159.1 68.5C158.5 67.9 157.9 67.4 157.2 66.9C153.5 64.2 150.1 61.2 146.8 58.1C145.5 56.9 144.1 55.7 142.8 54.5C142.5 54.2 142.2 54 141.8 53.7C141.5 53.4 140.9 53.5 140.7 53.8C139.5 55.9 138.8 58.1 138.1 60.3C138 60.7 138.1 61.1 138.4 61.4C139 62 139.7 62.5 140.3 62.9C144.4 65.7 148.6 68.4 152.6 71.3C155.7 73.6 158.9 75.8 162.1 78C162.7 78.4 163.2 78.8 163.8 79.1C164.1 79.3 164.5 79.5 164.9 79.7C165.1 79.8 165.4 79.8 165.7 79.7C166.1 79.8 166.3 79.2 166.2 78.7Z" fill="#FECC2F"/>
  <path d="M160.1 54.6C160 54 159.8 53.1 159.6 52.2C159.3 50.8 159.1 49.5 158.8 48.2C158.6 47.5 158.3 46.9 157.8 46.4C154.6 43.5 151.4 40.7 148.4 37.7C148.3 37.6 148.2 37.5 148.1 37.5C147.8 37.2 147.2 37.3 147.1 37.7C146.2 39.6 145.7 41.6 145 43.5C144.8 44.1 145.1 44.6 145.5 45C145.6 45.1 145.7 45.2 145.8 45.3C149.1 48 152.4 50.7 155.7 53.5C156.7 54.3 157.6 55 158.6 55.8C158.8 56 159.1 56.1 159.3 56.2C159.4 56.2 159.6 56.2 159.7 56.2C160 56.2 160.1 56 160.2 55.6C160.1 55.3 160.1 55.1 160.1 54.6Z" fill="#33BEB8"/>
  <path d="M155 27.9C154.3 24.9 154 22.4 153.3 20C153.1 19.3 152.9 18.7 152.6 18.1C152.6 18 152.4 17.9 152.3 17.9C152 17.9 151.8 18.1 151.7 18.4C151.4 19.7 151.2 21.1 150.9 22.5C150.6 24 150.3 25.5 149.9 27C149.7 27.9 150 28.6 150.7 29.2C152 30.2 153.3 31.2 154.8 31.9C154.9 31.9 155.1 31.9 155.2 31.9C155.3 31.8 155.4 31.7 155.4 31.6C155.3 30 155.1 28.6 155 27.9Z" fill="#EE657A"/>
  <path d="M186.2 66.2C186.2 65.7 186 65.6 185.7 65.5C183.2 65 180.8 65.2 178.4 65.8C177.1 66.1 175.8 66.7 174.7 67.6C174.3 67.9 174 68.6 174.2 69.1C175.2 72.4 176.3 75.6 177.6 78.8C177.7 79 178 79.3 178.2 79.3C178.4 79.3 178.7 79.1 178.9 78.9C179.8 77.5 180.6 76.1 181.5 74.7C183 72.2 184.5 69.8 186 67.3C186 66.9 186.1 66.5 186.2 66.2Z" fill="#33BEB8"/>
  <path d="M216.1 56.7C216.1 54.2 215.8 52.1 215 49.9C214.7 48.9 213.7 48.4 212.7 48.7C212.4 48.8 212.2 48.8 211.9 48.9C208.2 50.5 204.7 52.5 201.8 55.3C199.6 57.4 197.3 59.5 195.7 62C195.3 62.6 194.8 63.1 194.4 63.6C193 65.3 191.7 67.1 190.6 69C189.1 71.5 187.5 73.9 186 76.4C184.5 78.7 183.2 81.2 182 83.7C181.8 84.1 181.7 84.5 181.6 84.9C181.5 85.2 181.9 85.8 182.2 85.8C184.1 86 186 86.3 188 86.5C188.4 86.5 188.8 86.5 189.2 86.5C189.6 86.4 190 86.3 190.2 85.9C190.5 85.3 190.8 84.7 191.1 84C191.7 82.6 192.3 81.2 193 79.8C194.6 76.3 197.1 73.6 200 71.2C200.4 70.9 201 70.9 201.5 71.3C201.7 71.5 201.9 71.6 202.1 71.9C202.5 72.4 202.6 73 202.3 73.4C200.7 75.8 199.3 78.4 197.9 80.9C197 82.6 195.9 84.2 194.5 85.6C194.2 85.9 194 86.2 193.8 86.6C193.7 86.9 193.8 87.2 194 87.3C197 88.7 200.2 89.6 203.2 91C203.7 91.2 204.3 91 204.7 90.6C205.5 89.9 206.2 89 206.8 88C208.9 84.4 210.7 80.7 211.8 76.7C213.1 71.9 214.3 67.1 215.5 62.2C215.6 61.8 215.7 61.4 215.8 61C215.9 59.5 216.1 58 216.1 56.7Z" fill="white"/>
  <path d="M226.9 156.4C226.8 156.4 226.8 156.4 226.9 156.4C226.8 158.9 226.6 161.4 226.7 163.9C226.8 169.2 226.9 174.4 227.6 179.6C227.8 181.1 228 182.6 228.3 184.1C229.3 189.1 230.5 194.1 231.7 199C232.3 201.4 233.1 203.8 234.1 206C234.2 206.3 234.4 206.5 234.7 206.4C234.8 206.4 234.9 206.2 234.9 206.1C235.2 203.4 235.7 200.7 235.9 197.9C235.9 197.4 236.1 196.8 236.2 196.3C236.6 193.8 237.2 191.4 237.8 189C238.7 185.5 239.8 182.1 240.5 178.6C241 176.3 241.7 174.1 242.5 171.9C242.9 170.9 243.3 169.8 243.6 168.8C244.5 166.2 245.2 163.5 245.8 160.8C246.4 158.1 246.6 155.3 247.1 152.6C247.3 151.9 247.2 151.2 247.3 150.5C247.6 146.6 247.4 142.8 247.1 138.9C246.9 136.4 246.5 134 245.6 131.6C245.3 130.8 245.1 130 244.8 129.2C243.9 126 242.5 123 240.7 120.2C238.7 117.2 237 114 235.6 110.8C234.2 107.7 232.7 104.6 230.9 101.6C228.5 97.4 225.7 93.5 222.8 89.6C221.3 87.5 219.5 85.5 217.7 83.6C217.4 83.3 217.1 83 216.8 82.7C216.2 82.1 215.4 82.2 215.1 82.9C214 85.1 212.8 87.3 211.6 89.5C210.7 91.1 209.8 92.6 208.9 94.1C208.7 94.4 208.8 94.6 208.9 94.9C209.1 95.2 209.4 95.6 209.6 95.9C210.9 97.4 212.2 98.8 213 100.6C213.6 101.7 214.4 102.7 215.2 103.5C215.9 104.2 216.6 104.9 217.3 105.6C218.5 106.8 219.4 108.2 220 109.7C220.3 110.5 220.6 111.3 220.8 112C221.8 114.9 222.7 117.8 223.7 120.6C224.1 121.6 224.4 122.7 224.6 123.8C224.9 125.1 225.2 126.5 225.4 127.9C225.9 130.8 226.6 133.6 226.6 136.5C227 139 227 141.5 226.9 143.9C227.2 148.1 227 152.2 226.9 156.4Z" fill="#33BEB8"/>
  <path d="M281.2 253.1C281.2 252.4 281.2 251.7 281 251C280.6 249.8 280.2 248.7 279.7 247.5C278.7 244.8 277.7 242.1 276.8 239.3C275.7 236.2 274.8 233 274.2 229.7C273.8 227.5 273.4 225.4 272.9 223.2C272.5 221.4 272.3 219.7 272 217.9C271.6 215.4 271.4 213 271.2 210.5C271.2 209.8 271.1 209.1 271 208.4C270.6 206.6 270.5 204.8 270.5 203C270.5 200.6 270.5 198.3 270.5 196C270.5 191.7 270.5 187.4 270.5 183.2C270.5 181.3 270.4 179.4 270 177.4C269.8 176.2 269.7 174.9 269.6 173.7C269.5 173 269.5 172.3 269.3 171.6C268.8 169.3 268.3 167 267.6 164.8C265.8 159.3 263.8 153.9 261.5 148.5C260.7 146.6 259.7 144.7 258.9 142.9C258.8 142.7 258.6 142.4 258.4 142.3C258.3 142.2 258.2 142.2 258 142.2C257.9 142.2 257.8 142.3 257.7 142.4C257.6 142.5 257.6 142.6 257.5 142.8C257.3 144.7 257 146.6 256.9 148.6C256.7 151.5 256.1 154.4 255.6 157.2C255 160.3 254.1 163.4 253 166.4C251.8 169.6 250.6 172.9 249.8 176.2C249.2 178.5 248.6 180.7 247.9 183C246.9 186.3 246.1 189.7 245.5 193.1C245.4 193.6 245.3 194.2 245.3 194.7C244.9 200.3 245.6 205.7 246.2 211.2C246.2 211.3 246.3 211.5 246.3 211.6C246.9 214.6 247.7 217.5 248.7 220.4C249.4 222.4 250.3 224.2 251.4 226C253 228.4 254.7 230.8 256.8 232.7C257 232.9 257.2 233.1 257.4 233.3C260.1 236.1 262.8 238.9 265.5 241.6C265.8 241.9 266.1 242.2 266.4 242.5C269.3 244.8 272.2 247.2 275.4 249.2C276.9 250.2 278.4 251.1 279.9 252.1C280.4 252.3 280.8 252.8 281.2 253.1Z" fill="#EE657A"/>
  <path d="M279.3 189.3C279.2 191.5 279.2 193 279.2 194.5C279.1 198.5 279.2 202.5 279.8 206.5C280 207.7 280 209 280.1 210.2C280.1 210.9 280.1 211.6 280.2 212.3C280.8 216 281.2 219.7 282 223.3C282.5 225.3 282.7 227.4 283.3 229.4C285.1 235.7 287.2 241.8 289.7 247.8C290 248.4 290.3 249 290.7 249.6C290.9 250 291.3 250.2 291.7 250.2C292.1 250.2 292.5 250.2 292.9 250.2C293.8 250.2 294.5 250.5 295.2 251C295.5 251.3 295.8 251.6 296.1 251.8C297.4 253 298.5 254.5 299.5 256C301 258 302.6 259.9 304.4 261.6C305.4 262.6 306.4 263.5 307.4 264.5C310.3 267.3 313.5 269.8 316.9 271.9C319.9 273.7 322.9 275.3 325.9 277C326.1 277.1 326.4 277.2 326.7 277.3C326.8 277.3 327 277.3 327.1 277.3C327.4 277.2 327.6 277 327.5 276.7C327.1 275.2 326.2 274 325.3 272.7C324.7 271.9 324.3 271.1 323.9 270.2C323.5 269.3 323.1 268.4 322.7 267.6C320.5 263.6 318.5 259.5 317 255.2C316.4 253.5 315.8 251.8 315.1 250.2C313.7 246.9 312.8 243.4 312 239.9C311.4 237.3 310.8 234.8 310.1 232.3C309.2 229.3 308.2 226.2 307.5 223.1C306.8 219.9 305.8 216.7 305.1 213.4C305 213.1 305 212.9 304.9 212.6C304.1 208.7 303.3 204.8 302.5 200.8C302 198.5 301.5 196.2 300.8 193.9C300.4 192.5 300 191 299.7 189.5C299.4 187.4 298.9 185.4 298.5 183.4C297.9 180.7 297.2 178 296.3 175.4C295 171.9 294 168.3 293 164.7C292.1 161.4 291 158.1 289.8 154.8C288.8 152.4 287.6 150 286.5 147.6C285.3 145.1 284 142.6 282.6 140.3C280.2 136.4 277.8 132.5 275.3 128.7C273.8 126.4 272.3 124.1 270.8 121.8C270.3 121.1 269.9 120.4 269.4 119.7C266.3 115.6 262.8 111.9 258.9 108.6C257.4 107.4 255.9 106.2 254.4 104.9C252.3 102.9 249.9 101.2 247.5 99.5C245.3 98 242.9 96.6 240 95.2C239.9 95.2 239.8 95.3 239.7 95.4C239.6 95.5 239.6 95.6 239.6 95.7C239.6 96 239.7 96.2 239.9 96.4C242.8 99.2 245.2 102.4 247.2 105.9C249.7 110.1 252.3 114.1 255.1 118.1C255.5 118.7 255.9 119.2 256.2 119.9C257.7 122.4 259.3 124.8 261 127.2C264.2 131.9 267 136.8 269.3 142C271.5 146.9 273.2 152.1 275.1 157.1C275.5 158.3 275.9 159.5 276.3 160.6C277.4 164 278.3 167.5 278.6 171.1C278.7 171.9 278.8 172.7 278.9 173.6C279.3 175.7 279.4 177.7 279.4 179.8C279.2 183.3 279.3 186.6 279.3 189.3Z" fill="#FECC2F"/>
  <path d="M359.1 273C360.8 273.1 362.3 273.2 363.8 273.2C364.6 273.2 365.5 273.3 366.3 273.3C366.6 273.3 366.8 273.1 366.9 272.8C366.9 272.7 366.9 272.5 366.8 272.4C366.5 272.1 366.3 271.7 366 271.5C362.9 269.1 360.3 266.3 357.7 263.4C355.9 261.5 354.3 259.4 352.8 257.2C349.8 252.9 347.3 248.3 344.4 243.9C343.9 243.1 343.4 242.2 343 241.4C340.8 237.4 338.9 233.2 337 229.1C334.5 223.6 332.2 217.9 329.5 212.5C328.8 211.1 328.3 209.7 327.7 208.3C326.9 206.4 326.2 204.4 325.4 202.5C324.9 201.4 324.5 200.2 324 199.1C321.4 193.6 318.7 188.1 315.8 182.8C314.2 179.9 312.8 176.9 311.4 173.9C311 173 310.6 172.1 310.2 171.2C308.8 168.4 307 166.1 304.5 164.2C304.3 164 304 164 303.8 164.2C303.7 164.3 303.6 164.5 303.7 164.6C303.9 165.8 304.2 167 304.7 168.2C305.3 169.9 306 171.6 306.5 173.3C307.6 176.7 308.5 180.2 309.1 183.7C309.5 186 310 188.3 310.6 190.6C311.7 194.5 312.5 198.4 313.3 202.3C314 205.8 314.7 209.3 315.7 212.8C316.2 214.4 316.6 216 317 217.6C317.6 220.2 318.3 222.7 319.1 225.2C320.4 229.2 321.4 233.2 322.4 237.2C323.4 241.1 324.6 244.9 326.2 248.6C326.7 249.6 327 250.7 327.4 251.7C328.4 254.6 329.6 257.4 331 260.1C332.1 262.2 333.2 264.2 334.4 266.3C334.6 266.7 334.8 267 335 267.4C335.3 267.9 335.7 268.3 336.3 268.5C337.4 269 338.6 269.4 339.8 269.8C342.6 270.6 345.4 271.5 348.2 272.2C350.4 272.8 352.5 273.1 354.7 273.2C356.2 273 357.8 273 359.1 273Z" fill="#33BEB8"/>
  <path d="M360.1 356.9C361.1 356.9 362 356.9 363 357C366.2 357.2 369.4 357.1 372.5 356.8C375.8 356.5 379.1 356.3 382.4 356C386.4 355.6 390.4 355.3 394.4 355.2C395.5 355.2 396.6 355.1 397.7 355.1C399 355.1 400.2 355 401.4 354.7C403.8 354.2 406.3 353.8 408.8 353.4C409.9 353.2 411 353 412 352.7C415.3 351.7 418.7 351 422.1 350.5C424.3 350.1 426.4 349.5 428.5 348.8C431 347.9 433.5 347.1 436 346.4C437.5 346 438.9 345.6 440.4 345.3C442.2 344.9 443.8 344.2 445.5 343.5C447.3 342.7 449 341.7 450.6 340.7C452.7 339.3 454.7 337.9 456.8 336.5C457.7 335.9 458.6 335.2 459.5 334.6C462.1 332.7 462.4 332.4 463.9 329.7C464.5 328.6 465.1 327.5 465.7 326.4C468.3 322 470.3 317.3 472 312.4C473.2 309 473.9 305.5 474.1 301.8C474.2 299.9 474.4 297.9 474.5 296C474.6 294.6 474.7 293.2 474.8 291.8C475 289 474.8 286.3 474.2 283.5C474 282.7 473.9 281.9 473.7 281.1C472.8 277.5 471.8 273.9 470.7 270.3C469 264.6 466.5 259.2 463.2 254.2C462.6 253.3 461.9 252.4 461.3 251.5C458.5 247 455.2 243 451.8 238.9C450.5 237.4 449.1 236.1 447.5 235.1C441.4 231.4 435.3 227.4 429 224C427.5 223.2 426.1 222.5 424.5 221.9C417.5 219 410.4 216.2 403.2 213.7C401.9 213.2 400.6 212.8 399.2 212.5C395.6 211.6 391.9 211 388.2 210.6C386 210.4 383.8 210.1 381.6 209.8C379.5 209.5 377.5 209.3 375.4 209C374.6 208.9 373.7 208.9 372.9 208.7C369.5 208.1 366 208 362.6 207.9C361.3 207.9 360.1 207.8 358.9 207.7C357.1 207.7 355.3 207.5 353.5 207.3C352.1 207.1 350.8 206.9 349.4 206.9C346.4 206.9 343.3 206.9 340.3 207.1C340 207.1 339.7 207.2 339.5 207.3C339.3 207.5 339.1 207.7 339.1 207.9C339 208.5 339.3 209 339.5 209.5C340.8 212.3 342.1 215 343.3 217.8C344.7 221.1 346.2 224.4 347.6 227.7C349.8 232.6 352.3 237.4 355.2 242C356 243.3 356.8 244.6 357.6 245.9C358.5 247.3 359.3 248.7 360.2 250.1C362.3 253.4 364.6 256.4 367.2 259.3C369.4 261.8 371.9 263.9 374.7 265.8C378.1 268.2 381.7 270.3 385.5 271.9C386.8 272.5 388 273 389.3 273.6C390.5 274.1 391.4 274.9 392.2 275.9C392.5 276.3 392.5 277 392.2 277.4C390.8 278.8 389.5 280.1 388.1 281.5C387.7 281.9 387.2 282.1 386.6 282.1C381.8 282.5 376.9 282.5 372.1 282C368.4 281.7 364.7 281.4 360.9 281.2C360.1 281.1 359.2 281.2 358.4 281.2C356.9 281.2 355.4 281.2 353.8 281.2C351.9 281.3 349.9 281.1 348 280.9C346.8 280.7 345.5 280.5 344.3 280.2C343.8 280 343.2 280 342.7 279.9C342.4 279.9 342.1 279.9 341.9 280.1C341.8 280.3 341.7 280.7 341.9 280.9C342.8 282.5 343.9 283.9 345 285.3C345.3 285.7 345.6 286.2 345.9 286.7C346.1 287 346 287.2 345.9 287.5C344.4 289.5 342.6 291.2 340.6 292.8C340.5 292.9 340.3 292.9 340.2 292.9C340.1 292.9 339.9 293 339.8 292.9C338 292.3 336.1 291.7 334.4 290.9C332.3 289.9 330.1 289 327.9 288.1C325.5 287.1 323.1 286.1 320.7 284.8C317.8 283.2 314.9 281.5 312 279.9C309.3 278.4 306.9 276.6 304.6 274.5C303.7 273.7 302.7 272.9 301.8 272.1C301.5 271.8 301.2 271.6 300.8 271.3C300.4 271.1 300 271 299.6 271.2C298.8 271.6 298.1 271.7 297.2 271.4C296.1 270.9 294.9 270.5 293.7 270.2C292.5 269.9 291.3 269.4 290.2 268.9C287.1 267.4 284.1 265.6 281.2 263.7C278.9 262.2 276.6 260.7 274.3 259.1C271.4 257.2 268.6 255.2 265.9 253C261.6 249.5 257.7 245.6 254.1 241.4C252.7 239.7 251.3 238 249.9 236.2C249.6 235.8 249.2 235.4 248.7 235.1C248.4 234.9 248.2 234.9 247.9 235.1C246.8 235.7 246.1 236.8 245.1 237.5C244.7 237.8 244 237.8 243.6 237.4C243.3 237.1 243 236.9 242.7 236.6C239.7 233.4 236.8 230 234.2 226.4C232.8 224.5 231.6 222.5 230.7 220.3C229.7 217.9 228.5 215.5 227.5 213.1C226.4 210.6 225.5 208 224.6 205.3C224.3 204.5 224.1 203.7 224 202.9C222.9 198.1 221.8 193.2 220.8 188.3C220.5 186.5 220 184.8 219.4 183.1C218.8 181.4 218.4 179.7 218.1 177.9C217.8 175.8 217.5 173.8 217 171.8C216.5 169.2 216.3 166.6 216.4 164C216.4 161.4 216.5 158.7 216.5 156.1C216.5 154.4 216.5 152.8 216.5 151.1C216.5 149.3 216.6 147.5 216.8 145.7C217.4 141.5 217.6 137.2 218.1 132.9C218.2 132.2 218.2 131.5 218.2 130.8C218.4 127 217.6 123.4 215.9 120C215 118.1 214 116.3 213.2 114.4C212 111.7 210.4 109.3 208.8 106.9C208.4 106.3 207.9 105.8 207.4 105.4C206.9 104.9 206.3 104.6 205.8 104.1C204.9 103.4 203.9 103 202.8 102.7C202.1 102.5 201.4 102.5 200.7 102.4C198.8 102.1 196.9 101.9 194.9 101.7C193.5 101.5 192.2 101.3 190.8 100.9C187.5 99.9 184.1 99.2 180.7 98.7C177.4 98.2 174.1 97.7 170.8 97.6C166.8 97.5 162.8 97.1 158.8 96.8C157 96.6 155.2 96.4 153.4 96.2C150.7 95.8 147.9 95.5 145.1 95.4C140.3 95.3 135.4 95.3 130.6 95.6C125.1 95.9 119.6 96.4 114.1 97C112.2 97.2 110.3 97.4 108.3 97.5C106.4 97.6 104.5 97.8 102.5 98.2C100.6 98.5 98.7 98.8 96.8 99.2C91.1 100.2 85.4 101.3 79.8 103C79 103.2 78.2 103.5 77.4 103.7C74.8 104.5 72.1 105.3 69.4 105.9C66 106.7 62.8 107.8 59.6 109.3C56.1 111 52.6 112.6 49.1 114.3C47.6 115 46.2 115.9 44.9 117C43.1 118.5 41.2 119.9 39.4 121.4C37.5 123 35.7 124.8 34.1 126.7C32.3 128.8 30.4 130.8 28.5 132.8C27.3 134 26.2 135.2 25.1 136.4C23.9 137.7 22.7 139.1 21.7 140.6C19.7 143.6 17.7 146.6 16.3 149.9C15.9 150.8 15.5 151.6 15 152.5C14.1 154.5 13.1 156.5 12.2 158.5C10.9 161.4 10.3 164.6 10.1 167.8C9.99999 168.8 9.99999 169.7 9.99999 170.7C9.99999 171.5 9.89999 172.4 9.79999 173.2C9.39999 175.5 9.49999 177.9 9.39999 180.2C9.29999 182 9.59999 183.8 10.2 185.5C10.7 187.2 11.5 188.9 12.4 190.4C13.2 191.8 14 193.3 14.9 194.7C16.3 196.9 17.6 199.2 19.2 201.3C20.6 203.2 22.2 204.9 24 206.4C25.6 207.7 27.3 209 28.9 210.3C32.7 213.4 36.9 215.7 41.5 217.4C43.1 218 44.6 218.6 46.2 219.1C47.4 219.5 48.6 219.9 49.7 220.2C51.9 220.9 54.2 221.5 56.5 222.1C57.8 222.5 59.2 222.9 60.5 223.2C63.5 223.9 66.4 224.5 69.5 224.5C72.8 224.6 76.1 224.7 79.5 224.8C82.4 224.8 85.3 224.9 88.2 224.8C92.5 224.6 96.8 224.4 101 224C105.4 223.6 109.8 222.9 114.1 222.2C117.8 221.6 121.4 220.7 125 219.6C126.1 219.3 127.1 219 128.2 218.7C132.3 217.6 136.5 216.8 140.7 215.9C142.7 215.5 144.8 215.2 146.8 214.9C152.2 214.3 157.5 213.6 162.8 212.5C165.5 211.9 168.2 211.6 171 211.2C175.5 210.7 179.8 211.1 184.1 212.4C185.8 212.9 187.5 213.6 189.2 214.1C191.4 214.8 193.2 216 194.8 217.6C196.2 219 197.5 220.4 198.9 221.8C201 223.9 202.8 226.1 204.4 228.5C205.4 230 206.5 231.4 207.6 232.8C208.7 234.1 209.5 235.5 210.1 237.1C211 239.3 211.9 241.4 213.1 243.5C213.7 244.6 214.2 245.7 214.6 246.9C215.3 249 216.2 251 217.4 252.9C218.5 254.7 219.3 256.6 219.9 258.6C220.4 260 220.9 261.5 221.4 262.9C222.6 265.9 223.8 268.8 225 271.7C225.7 273.4 226.4 275 227.3 276.6C229 279.8 230.6 283 231.8 286.4C232.5 288.5 233.3 290.5 234.1 292.6C234.7 294.2 235.2 295.7 236 297.2C237.3 299.8 238.5 302.4 239.7 305.1C240.8 307.4 242.1 309.5 243.6 311.4C244.8 312.9 245.9 314.5 247.1 316C248.3 317.5 249.5 319 250.7 320.5C252.7 323 255 325.2 257.5 327.2C259.8 329 262.1 330.8 264.4 332.5C265.4 333.2 266.4 333.9 267.5 334.6C273.5 338.4 279.9 341.2 286.7 343.2C288.4 343.7 290.2 344.1 291.9 344.5C294.3 345.1 296.8 345.6 299.1 346.4C302.5 347.6 306 348.6 309.4 349.5C315.1 351.1 320.9 352.4 326.7 353.6C328.3 353.9 330 354.2 331.6 354.5C334.6 355 337.7 355.2 340.7 355.5C345.2 356 349.8 356.3 354.4 356.2C356.8 356.8 358.5 356.9 360.1 356.9Z" fill="white"/>
  <path d="M543.7 321.1C543.4 321.1 543.2 321.1 542.9 321.2C542.6 321.3 542.4 321.6 542.6 321.9C543.7 324.9 545.6 327.5 547.7 329.9C548.9 331.2 550.2 332.4 551.5 333.7C551.6 333.8 551.7 333.8 551.9 333.8C552 333.8 552.2 333.8 552.3 333.7C552.6 333.5 552.7 333.2 552.6 333C551.8 331.5 551 330.1 550.3 328.6C549.5 327 549 325.3 548.4 323.6C548.2 323 547.7 322.4 547 322.2C545.9 321.8 544.9 321.2 543.7 321.1Z" fill="#EE657A"/>
  <path d="M477.1 238.9C476.1 239 475.2 239.1 474.2 239.2C473.8 239.2 473.4 239.4 473 239.5C472.8 239.6 472.5 239.8 472.3 240C472.1 240.1 472.4 240.9 472.6 241.1C473 241.5 473.4 241.9 473.7 242.3C474.5 243.1 475.4 243.7 476.6 243.8C477.7 243.9 478.8 244.2 479.9 244.3C482.9 244.7 485.8 245.6 488.7 246.5C491.8 247.5 494.5 249.1 496.9 251.2C497.5 251.7 498.2 252.3 498.8 252.8C502.3 256.1 505.6 259.7 508.6 263.5C511.8 267.7 514.9 271.9 517.9 276.3C519 278 520.2 279.7 521.4 281.4C524.8 286 528.1 290.6 531.3 295.2C533.8 298.9 536.8 302.1 540.1 305C546.8 310.9 554.2 315.6 562.6 318.7C564 319.2 565.5 319.7 566.9 320.3C569.3 321.2 571.7 321.6 574.1 322C578.2 322.6 582.1 322.2 585.8 320.5C587.1 319.9 588.4 319.4 589.6 318.9C591.6 318 593.7 317.2 595.7 316.3C596.7 315.8 597.7 315.3 598.6 314.8C598.7 314.8 598.7 314.5 598.6 314.4C598.6 314.3 598.4 314.2 598.3 314.2C595.4 314.3 592.5 314.4 589.6 314.1C586.9 313.8 584.1 313.7 581.3 313.4C579.8 313.2 578.3 313 576.8 312.8C572.5 312.2 568.5 310.6 564.8 308.3C562.1 306.7 559.6 304.6 557 302.8C556.5 302.5 556.1 302.1 555.7 301.7C554.3 300.4 552.9 299.1 551.5 297.7C548.1 294.2 545.1 290.4 542.9 286.1C542.2 284.7 541.4 283.4 540.7 282.1C540.1 281 539.5 279.9 539 278.8C537.3 275.3 535.6 271.9 534 268.3C533.2 266.5 532.4 264.8 531.5 263.1C529.2 259 526.4 255.2 522.5 252.4C520.9 251.3 519.3 250.1 517.7 249.2C515.7 248 513.6 246.9 511.4 246.1C508 244.9 504.6 243.8 501.2 242.7C499.1 242 496.9 241.6 494.7 241.4C493.6 241.3 492.5 241.1 491.4 241C487.9 240.4 484.3 239.8 480.7 239.4C479.8 239 478.5 238.9 477.1 238.9Z" fill="#FECC2F"/>
  <path d="M507.4 218.2C506 218.2 504.2 218.2 502.4 218.3C501 218.4 499.7 218.7 498.3 218.8C497.6 218.9 496.9 218.9 496.2 219C492.6 219.4 489.1 220 485.7 221.2C481.7 222.6 477.7 224.3 473.8 226.1C471.4 227.2 469.1 228.5 466.8 229.7C466.1 230.1 465.4 230.6 464.7 231C464.2 231.3 464.1 232 464.4 232.4C465.1 233.3 465.9 234 466.8 234.6C467.3 234.9 467.8 235.1 468.4 234.9C468.9 234.7 469.4 234.5 470 234.3C472.2 233.4 474.4 232.7 476.8 232.4C477.5 232.3 478.2 232.1 478.8 232C479.6 231.9 480.4 231.7 481.3 231.7C483.1 231.6 484.9 231.6 486.7 231.6C487.8 231.6 488.9 231.7 490 231.9C493.1 232.5 496.3 232.7 499.4 233.2C501.6 233.5 503.7 234 505.9 234.6C508.1 235.3 510.4 236 512.6 236.7C515.4 237.6 518 238.8 520.6 240.1C522.7 241.2 524.6 242.5 526.6 243.8C532.3 247.7 536.7 252.7 540 258.8C541.2 261 542.3 263.2 543.4 265.5C545.7 270.5 548 275.5 551 280.2C551.4 280.8 551.7 281.4 552 282C554.6 287.1 558.5 291.3 562.9 294.9C564.7 296.4 566.7 297.7 568.6 299C569.7 299.8 570.9 300.5 572.2 301.1C576.9 303.1 581.8 304.6 587 304.7C588.5 304.7 590 304.8 591.5 305C594 305.4 596.5 305.4 598.9 305.3C599 305.3 599.2 305.2 599.3 305.2C599.4 305.1 599.5 305 599.5 304.9C599.5 304.8 599.4 304.6 599.3 304.6C598.3 304.4 597.4 304.4 596.4 304.2C594.5 303.7 592.7 303.2 590.8 302.5C587.5 301.2 584.3 299.6 581 298C578.6 296.9 576.2 295.8 574.1 294.2C570 291.8 566.4 288.8 562.6 286C562.1 285.7 561.8 285.3 561.3 284.9C557 281 553.3 276.5 550.3 271.5C549 269.3 547.9 267.2 546.7 265C545.6 262.9 544.6 260.8 543.4 258.8C540.7 254.1 538.3 249.3 536.4 244.3C536.3 244 536.2 243.8 536.1 243.5C535.4 241.7 534.5 240 533.5 238.3C531.4 234.6 529.1 230.9 526.9 227.3C526.3 226.4 525.6 225.5 525 224.6C523.8 222.7 522.1 221.3 520 220.4C518.9 219.9 517.8 219.3 516.6 219C514.7 218.5 512.8 218.1 510.9 218.2C510 218.2 508.9 218.2 507.4 218.2Z" fill="#EE657A"/>
  <path d="M510.7 208.6C512.2 208.5 513.7 208.5 515.3 208.5C517.4 208.5 519.4 208.9 521.4 209.5C525.4 210.8 529.1 212.7 531.9 215.9C532.4 216.5 533 217.2 533.5 217.8C534.6 219.4 535.7 221 536.8 222.6C538.4 225.2 540 227.7 541.6 230.4C543.3 233.1 544.7 235.9 546 238.9C546.6 240.3 547.2 241.7 547.8 243.1C549.2 246.4 550.8 249.6 552.6 252.8C554.8 256.9 557.1 261 559.3 265.2C561.2 268.8 563.6 271.9 566.3 274.9C567.5 276.2 568.9 277.4 570.3 278.5C573.4 280.8 576.6 283.1 579.8 285.2C581.1 286.1 582.4 286.8 583.7 287.5C586.2 288.7 588.6 290 591.1 291.2C593 292.1 594.9 292.9 596.8 293.6C598.7 294.3 600.8 294.9 602.9 294.9C605.3 295 607.6 295 609.9 295.1C612.8 295.1 615.7 294.6 618.5 293.7C618.6 293.7 618.7 293.6 618.9 293.5C619.2 293.3 619.4 293.1 619.3 292.9C619.3 292.6 619.1 292.4 618.8 292.3C617.2 291.8 615.6 291.4 614.1 290.6C610.5 288.6 606.7 286.8 603.2 284.6C601.1 283.3 599 281.9 596.9 280.5C593.6 278.4 590.6 275.9 587.8 273.3C584.8 270.4 582.1 267.3 579.9 263.7C577.8 260.2 575.6 256.6 573.4 253.1C572.5 251.7 571.7 250.2 570.8 248.9C569.5 247 568.3 244.9 567.2 242.8C565.8 240.1 564.3 237.4 562.9 234.8C561.6 232.5 560.6 230.1 559.7 227.6C559.3 226.6 559 225.5 558.6 224.5C557 220.4 555.2 216.3 552.9 212.5C551.4 210 550 207.5 548.5 205C546.9 202.3 545 199.7 542.6 197.5C541 196 539.4 194.4 537.8 192.9C533.9 189.3 535.2 190.3 530.3 187.8C525.7 185.4 520.8 184.2 515.6 183.9C514.5 183.9 513.4 183.7 512.3 183.7C511.9 183.7 511.5 183.4 511.2 183.2C510.4 182.6 509.7 181.9 509.3 181C509.2 180.8 509.2 180.4 509.3 180.2C509.4 179.8 509.6 179.4 509.9 179.1C510.6 178.3 511.4 177.5 512.2 176.7C513.6 175.2 515.2 173.8 516.9 172.6C517.6 172.1 518.2 171.6 518.8 171C518.9 170.9 518.9 170.8 518.9 170.6C518.9 170.3 518.7 170.1 518.4 170.2C516.3 170.9 514.2 171.5 512.1 172.1C510.1 172.7 508.1 173.3 506.2 174C503.9 174.9 501.6 175.8 499.4 177.1C496 179.2 492.6 181.3 489.6 184C486.7 186.6 483.8 189.2 480.9 191.7C479.5 193 478.2 194.4 476.9 195.9C475.3 197.8 473.8 199.8 472.2 201.7C469.4 205 467.1 208.6 465.1 212.4C463 216.2 461.3 220.1 459.8 224.1C459.5 224.9 459.3 225.7 459.1 226.5C459.1 226.6 459.2 226.8 459.3 226.8C459.4 226.9 459.6 226.9 459.7 226.8C460 226.6 460.4 226.4 460.7 226.1C462.7 224 465.1 222.3 467.6 220.8C469.3 219.8 471 218.9 472.7 218C477.2 215.6 482 213.7 486.8 211.9C488.9 211.1 491 210.5 493.2 210C497.1 209.2 501.1 208.9 505.1 208.4C505.9 208.3 506.8 208.3 507.6 208.3C508.4 208.6 509.6 208.6 510.7 208.6Z" fill="#33BEB8"/>
  <path d="M147.3 190C143.8 190 140.4 189.5 137.1 188.7C135.1 188.2 133.1 187.5 131.3 186.6C127.8 184.9 124.6 182.7 121.9 179.9C120.7 178.7 119.7 177.4 118.9 175.9C118.4 175.1 118 174.2 117.5 173.3C117.2 172.7 117.1 172 117.2 171.3C117.2 170.7 117.4 170.2 117.7 169.8C118.5 168.7 119.5 167.7 120.6 166.9C121 166.6 121.8 166.6 122.2 166.9C123.1 167.5 123.9 168.3 124.6 169.2C126.1 171 127.9 172.5 129.7 174C132 175.8 134.5 177.2 137.2 178.3C140.6 179.6 144.1 180.3 147.7 180.6C148.7 180.7 149.6 180.7 150.6 180.7C153.7 180.8 156.7 180.3 159.6 179.3C161 178.8 162.5 178.3 163.9 177.8C167.3 176.5 170.4 174.8 173.3 172.6C174.8 171.4 176.4 170.3 177.9 169C179.1 168 180.1 166.9 181.3 165.9C182.2 165.1 183.1 164.2 184 163.4C184.4 163.1 185.2 163.1 185.5 163.5C185.7 163.7 185.9 163.9 186.1 164.1C186.4 164.4 186.6 164.8 186.8 165.1C187.1 165.6 187.1 166.1 186.9 166.7C186.8 167 186.7 167.2 186.5 167.4C185.5 168.9 184.4 170.3 183.1 171.6C181.1 173.7 179 175.7 176.9 177.7C175.8 178.8 174.7 179.8 173.5 180.8C171.8 182.4 169.9 183.8 168 185.1C166.6 186.1 165.1 186.8 163.6 187.3C159.9 188.6 152.5 190 148.6 190C148.1 190 147.7 190 147.3 190Z" fill="black"/>
  <path d="M181.9 124.5C181.9 128.6 181.2 132.5 179.7 136.2C178.8 138.6 177.5 140.6 175.6 142.4C174.2 143.8 172.8 145 171.1 146C170.4 146.4 169.6 146.7 168.8 146.9C167.9 147.1 167.2 146.9 166.4 146.4C165.7 145.9 165.2 145.3 164.8 144.5C164.3 143.4 163.8 142.2 163.6 141C163 137.8 163.1 134.7 163.8 131.5C164.4 128.8 165.4 126.2 166.5 123.7C167.8 120.9 169.8 118.6 172.2 116.7C172.8 116.2 173.6 115.8 174.3 115.4C175 115 175.8 114.8 176.6 114.5C177.4 114.2 178.2 114.4 179 114.9C179.8 115.5 180.4 116.2 180.8 117.2C181.3 118.5 181.6 119.8 181.7 121.2C181.8 122.3 181.9 123.4 181.9 124.5Z" fill="black"/>
  <path d="M139.5 126.6C139.5 124.7 139.7 123.3 140.2 122C140.7 120.7 141.2 119.4 141.9 118.2C142.7 116.7 143.7 115.4 144.8 114.2C146.2 112.8 147.8 111.8 149.7 111.3C150.4 111.1 151.1 111.2 151.7 111.6C152.8 112.2 153.6 113.2 153.8 114.5C153.9 115.2 154 115.9 154 116.6C153.9 120.3 152.9 123.7 151.1 126.8C150.8 127.4 150.3 127.9 149.9 128.5C148.9 129.8 147.7 131 146.4 132C146.1 132.3 145.7 132.5 145.4 132.7C144 133.6 142.5 133.4 141.3 132.2C140.4 131.3 139.9 130.1 139.7 128.9C139.5 128 139.5 127 139.5 126.6Z" fill="black"/>
  <path d="M53.6 146.3C53.6 146.6 53.5 147 53.4 147.4C52.9 149.3 52 151 50.7 152.5C48.8 154.7 46.8 156.8 44.5 158.6C43 159.8 41.3 160.8 39.5 161.4C38.7 161.7 37.9 161.6 37.2 160.9C36.9 160.6 36.6 160.3 36.4 160C35.9 159.4 35.8 158.8 36 158.1C36.1 157.8 36.2 157.6 36.3 157.3C37.6 154.2 39.4 151.4 41.6 149C42.5 148 43.5 147 44.5 146.1C45.6 145.1 46.9 144.3 48.5 144C49.2 143.9 49.8 143.7 50.5 143.5C50.8 143.5 51.1 143.5 51.3 143.5C52.4 143.8 53.2 144.6 53.5 145.7C53.6 146 53.6 146.1 53.6 146.3Z" fill="black"/>
  <path d="M37 142.3C36.9 144.4 36.2 146.4 34.8 148C33.2 149.8 31.6 151.4 29.8 152.9C28.4 154 26.9 155 25.2 155.6C24.4 155.9 23.6 155.7 22.9 155.1C22 154.3 21.7 153.3 22 152.1C22.2 151.3 22.5 150.5 22.9 149.8C23.9 148 25.1 146.3 26.4 144.7C27.8 143 29.4 141.5 31.1 140C31.6 139.5 32.2 139.2 32.8 138.8C33.4 138.4 34.1 138.4 34.8 138.8C35.2 139 35.5 139.2 35.9 139.4C36.6 140.2 37 141.2 37 142.3Z" fill="black"/>
</svg>
