<svg width="395" height="64" viewBox="0 0 395 64" fill="none" xmlns="http://www.w3.org/2000/svg">
  <path d="M76.1752 64L113.938 0H102.676L70.5414 54.4317L76.1752 64Z" fill="#FD3D00"></path>
  <path d="M66.5504 47.7153L94.6887 0H83.3452L60.9166 38.0715L66.5504 47.7153Z" fill="#FD3D00"></path>
  <path
    d="M75.3636 0H0L37.6818 64L75.3636 0ZM58.4775 9.55818L37.6818 44.8635L16.8911 9.55818H58.4775Z"
    fill="#FD3D00"></path>
  <path
    d="M192.628 38.2321C192.628 35.3904 192.618 33.0575 192.638 30.7246C192.638 30.3064 192.567 30.1653 192.111 30.1754C190.863 30.2107 189.616 30.1754 188.368 30.1956C188.034 30.1956 187.922 30.12 187.927 29.7723C187.948 28.0995 187.942 26.4267 187.927 24.7539C187.927 24.4365 188.003 24.3408 188.338 24.3458C189.621 24.3659 190.904 24.3357 192.187 24.3659C192.572 24.376 192.643 24.2551 192.638 23.9024C192.623 21.6552 192.638 19.408 192.623 17.1608C192.623 16.803 192.694 16.6972 193.074 16.6972C195.042 16.7174 197.009 16.7174 198.977 16.6972C199.362 16.6972 199.479 16.7728 199.474 17.1759C199.453 19.3878 199.474 21.5998 199.453 23.8117C199.453 24.2198 199.514 24.371 199.981 24.3659C203.003 24.3408 206.025 24.3458 209.042 24.3659C209.408 24.3659 209.509 24.2803 209.504 23.9125C209.484 21.6854 209.504 19.4533 209.489 17.2212C209.489 16.8434 209.539 16.6872 209.986 16.6972C211.933 16.7275 213.885 16.7224 215.837 16.6972C216.274 16.6922 216.345 16.8282 216.345 17.2212C216.324 19.4533 216.344 21.6804 216.324 23.9125C216.324 24.2803 216.421 24.371 216.786 24.371C218.631 24.3508 220.472 24.371 222.318 24.3559C222.678 24.3559 222.795 24.4315 222.79 24.8093C222.769 26.4469 222.769 28.0844 222.79 29.722C222.79 30.0998 222.719 30.2157 222.313 30.2107C220.467 30.1855 218.626 30.2107 216.781 30.1905C216.405 30.1905 216.324 30.2964 216.324 30.6541C216.339 34.7454 216.324 38.8418 216.334 42.9331C216.339 45.2055 217.065 45.9159 219.377 45.9311C220.518 45.9411 221.659 45.9411 222.805 45.9311C223.119 45.9311 223.271 45.9714 223.266 46.3442C223.246 48.017 223.251 49.6898 223.266 51.3626C223.266 51.6549 223.195 51.7456 222.891 51.7456C220.766 51.7305 218.637 51.7708 216.517 51.7103C215.092 51.67 213.687 51.408 212.445 50.6371C210.619 49.5084 209.879 47.7651 209.615 45.7446C209.519 45.0191 209.504 44.2885 209.504 43.5579C209.504 39.2751 209.504 34.9873 209.514 30.7045C209.514 30.3014 209.423 30.1905 209.007 30.1905C205.985 30.2107 202.962 30.2006 199.94 30.2006C199.671 30.2006 199.458 30.1553 199.458 30.5785C199.479 34.8613 199.464 39.1491 199.484 43.4319C199.494 45.1047 200.173 45.8051 201.872 45.8907C202.978 45.9462 204.083 45.9361 205.189 45.926C205.538 45.926 205.625 46.0268 205.62 46.3644C205.604 48.017 205.604 49.6747 205.62 51.3274C205.62 51.6247 205.579 51.7506 205.229 51.7456C203.348 51.7204 201.467 51.7708 199.59 51.7103C198.165 51.665 196.761 51.4181 195.518 50.6371C193.723 49.5084 192.937 47.7903 192.739 45.7849C192.481 43.1095 192.704 40.4239 192.628 38.2472V38.2321Z"
    fill="#0B1423"></path>
  <path
    d="M142.72 43.0035C144.749 37.0882 146.762 31.2031 148.775 25.3231C149.977 21.8163 151.173 18.3044 152.38 14.8026C152.441 14.6313 152.426 14.3945 152.75 14.3995C155.154 14.4146 157.563 14.4045 160.022 14.4045C159.769 15.1553 159.53 15.8607 159.287 16.5661C155.291 28.1044 151.285 39.6377 147.299 51.1811C147.147 51.6144 146.954 51.7454 146.488 51.7404C143.957 51.7152 141.427 51.7202 138.897 51.7404C138.547 51.7404 138.374 51.6598 138.258 51.3171C134.039 39.1591 129.805 27.001 125.581 14.8429C125.535 14.7169 125.444 14.591 125.505 14.4096H131.863C133.101 14.4096 133.101 14.4096 133.481 15.5584C136.513 24.5875 139.546 33.6217 142.578 42.6508C142.614 42.7616 142.664 42.8675 142.72 43.0136V43.0035Z"
    fill="#0B1423"></path>
  <path
    d="M366.493 48.3597C365.479 49.4733 364.44 50.3248 363.192 50.9395C361.311 51.8666 359.313 52.1084 357.254 52.0026C355.773 51.927 354.343 51.6247 352.979 51.01C350.505 49.8965 348.983 47.9667 348.116 45.4827C347.417 43.4874 347.234 41.4115 347.234 39.3104C347.234 34.5188 347.239 29.7321 347.229 24.9404C347.229 24.5071 347.315 24.3358 347.807 24.3459C349.668 24.3761 351.529 24.361 353.395 24.361C353.858 24.361 354.09 24.5844 354.09 25.0311C354.09 29.455 354.09 33.8789 354.09 38.3027C354.09 39.5573 354.135 40.8019 354.425 42.0363C355.266 45.6238 358.131 46.7726 361.245 46.173C363.963 45.6439 365.302 43.7696 365.951 41.2705C366.235 40.172 366.341 39.0434 366.341 37.9097C366.341 33.5715 366.346 29.2333 366.331 24.9001C366.331 24.4769 366.422 24.3509 366.868 24.356C368.8 24.3862 370.733 24.3811 372.665 24.356C373.07 24.356 373.172 24.4718 373.167 24.8598C373.156 33.6572 373.156 42.4545 373.167 51.2468C373.167 51.6449 373.035 51.7406 372.649 51.7356C370.966 51.7154 369.277 51.7104 367.589 51.7356C367.193 51.7406 367.076 51.5895 367.021 51.2468C366.869 50.3248 366.681 49.4128 366.488 48.3648L366.493 48.3597Z"
    fill="#0B1423"></path>
  <path
    d="M290.303 27.7969C291.018 26.9857 291.739 26.3307 292.56 25.8016C294.969 24.2548 297.626 23.8567 300.425 24.1338C301.794 24.2699 303.123 24.552 304.365 25.1718C306.977 26.4667 308.533 28.593 309.335 31.334C309.857 33.1227 310.034 34.9567 310.044 36.8059C310.07 41.5774 310.044 46.354 310.065 51.1255C310.065 51.6042 309.943 51.7452 309.451 51.7352C307.57 51.7049 305.694 51.7049 303.812 51.7352C303.28 51.7452 303.184 51.5739 303.189 51.0852C303.204 46.2431 303.204 41.4011 303.178 36.5539C303.173 35.2943 302.96 34.0548 302.453 32.8909C301.52 30.7344 299.669 29.6209 297.098 29.6813C293.549 29.7619 291.5 31.7975 290.765 35.1179C290.562 36.045 290.527 36.9822 290.532 37.9194C290.532 42.3281 290.527 46.7369 290.542 51.1406C290.542 51.5941 290.435 51.7301 289.959 51.7251C288.027 51.6949 286.095 51.7049 284.163 51.7251C283.803 51.7251 283.696 51.6495 283.696 51.2716C283.706 42.4541 283.706 33.6416 283.696 24.8241C283.696 24.4261 283.803 24.3354 284.193 24.3404C285.861 24.3656 287.53 24.3555 289.198 24.3404C289.538 24.3404 289.69 24.416 289.746 24.7838C289.893 25.7462 290.096 26.6985 290.303 27.7818V27.7969Z"
    fill="#0B1423"></path>
  <path
    d="M238.418 44.5256C238.611 44.445 238.631 44.2737 238.677 44.1326C240.796 37.9855 242.906 31.8385 245.015 25.6914C245.472 24.3663 245.456 24.3612 246.856 24.3612C248.545 24.3612 250.228 24.3612 251.917 24.3612C252.622 24.3612 252.627 24.3713 252.393 25.0163C250.903 29.0622 249.407 33.1032 247.921 37.1491C246.212 41.7998 244.498 46.4453 242.809 51.101C242.632 51.5847 242.414 51.7459 241.881 51.7358C239.478 51.7006 237.069 51.7106 234.666 51.7358C234.275 51.7358 234.118 51.5947 233.996 51.2622C231.775 45.1907 229.539 39.1192 227.313 33.0528C226.324 30.3622 225.335 27.6665 224.346 24.9759C224.123 24.3663 224.123 24.3663 224.747 24.3663C226.785 24.3663 228.824 24.3764 230.857 24.3562C231.268 24.3562 231.481 24.462 231.618 24.8701C233.621 30.7048 235.644 36.5395 237.662 42.3691C237.911 43.0896 238.17 43.8051 238.423 44.5256H238.418Z"
    fill="#0B1423"></path>
  <path
    d="M385.469 28.4578C386.169 27.3745 386.934 26.4625 387.953 25.7823C389.429 24.8048 391.092 24.4622 392.832 24.3866C393.339 24.3614 393.851 24.3765 394.358 24.3463C394.662 24.3262 394.789 24.3917 394.784 24.7393C394.764 26.5532 394.769 28.3621 394.784 30.1759C394.784 30.4682 394.698 30.5639 394.399 30.5639C393.415 30.5589 392.431 30.5589 391.452 30.5992C388.445 30.7151 386.412 32.4332 385.783 35.3606C385.57 36.3482 385.469 37.3509 385.469 38.3586C385.469 42.6414 385.459 46.9292 385.479 51.212C385.479 51.6655 385.352 51.7461 384.926 51.741C382.979 51.7159 381.027 51.7209 379.074 51.741C378.735 51.741 378.638 51.6554 378.638 51.3128C378.648 42.4801 378.648 33.6475 378.638 24.8199C378.638 24.4521 378.755 24.3513 379.115 24.3564C380.854 24.3715 382.594 24.3765 384.333 24.3564C384.703 24.3564 384.81 24.4924 384.86 24.8149C385.048 26.009 385.256 27.1981 385.469 28.4729V28.4578Z"
    fill="#0B1423"></path>
  <path
    d="M341.915 24.3411C340.16 24.3613 338.401 24.3562 336.646 24.3411C336.327 24.3411 336.236 24.4419 336.195 24.7442C336.028 25.9232 335.83 27.0922 335.637 28.2813C335.576 28.241 335.541 28.2309 335.521 28.2057C335.409 28.0697 335.302 27.9336 335.191 27.7976C333.898 26.2407 332.326 25.112 330.358 24.5175C327.909 23.7818 325.465 23.8473 323.041 24.5427C319.857 25.4546 317.402 27.3441 315.84 30.2514C313.543 34.5342 313.371 39.0185 314.938 43.5532C316.053 46.7729 318.198 49.1561 321.383 50.5619C323.624 51.5494 325.977 51.8064 328.391 51.5797C330.363 51.3932 332.184 50.7382 333.761 49.5088C334.42 48.9949 334.973 48.3701 335.581 47.6345C335.581 48.6674 335.576 49.5794 335.581 50.4964C335.586 51.0557 335.546 51.6099 335.455 52.1591C335.013 54.89 333.431 56.5477 330.713 57.1624C329.608 57.4143 328.487 57.4546 327.361 57.3589C324.669 57.1322 322.514 56.1295 321.636 53.3432C321.571 53.1366 321.469 53.0509 321.226 53.0509C319.116 53.066 317.012 53.061 314.902 53.0509C314.694 53.0509 314.588 53.0711 314.618 53.3331C314.923 55.9078 315.932 58.1097 317.996 59.7825C319.841 61.2789 321.996 62.075 324.324 62.4126C328.112 62.9668 331.859 62.7855 335.475 61.425C337.737 60.5735 339.562 59.1627 340.784 57.0415C341.92 55.0714 342.29 52.93 342.295 50.713C342.316 42.0568 342.3 33.3954 342.31 24.7392C342.31 24.4268 342.25 24.326 341.91 24.331L341.915 24.3411ZM333.938 43.392C332.356 45.5535 330.125 46.3799 327.488 46.1279C324.436 45.8307 322.458 44.1327 321.51 41.301C320.511 38.3181 320.693 35.3706 322.387 32.6649C323.787 30.4328 325.977 29.5157 328.578 29.6115C332.473 29.7576 334.76 32.4381 335.368 36.0407C335.475 36.6604 335.5 37.2852 335.515 37.774C335.531 39.8902 335.125 41.7746 333.943 43.392H333.938Z"
    fill="#0B1423"></path>
  <path
    d="M280.648 46.4354C280.648 46.1028 280.562 45.9567 280.202 45.9819C279.801 46.0121 279.395 45.9819 278.995 45.9013C278.336 45.7703 278.077 45.5486 277.945 44.9137C277.895 44.6769 277.895 44.43 277.895 44.1882C277.895 40.898 277.895 37.6028 277.884 34.3126C277.879 32.6851 277.671 31.0778 276.987 29.5813C275.623 26.5935 273.103 25.1071 270.009 24.447C267.651 23.9432 265.268 23.9281 262.885 24.2808C260.522 24.6284 258.331 25.4195 256.485 26.9764C254.817 28.3822 253.793 30.1507 253.473 32.3122C253.433 32.5793 253.382 32.8363 253.818 32.8312C255.765 32.8211 257.717 32.8262 259.67 32.8262C259.908 32.8262 260.04 32.7456 260.101 32.4785C260.359 31.3549 261.069 30.5588 262.068 30.0247C264.015 28.9868 266.069 28.9465 268.143 29.5561C269.457 29.9441 270.405 30.7805 270.856 32.1107C271.059 32.6952 271.089 33.2998 271.089 33.9145C271.089 34.7173 270.692 35.1187 269.898 35.1187C268.3 35.1187 266.698 35.1389 265.101 35.1187C263.067 35.0885 261.074 35.3102 259.117 35.8644C255.73 36.8167 253.143 39.1697 252.768 42.9386C252.413 46.4807 253.818 49.2016 256.977 50.8139C258.924 51.8065 261.054 52.0433 263.209 52.0534C265.456 52.0584 267.545 51.5143 269.38 50.1639C270.364 49.4434 271.17 48.5617 271.946 47.4431C272.033 48.0074 272.063 48.4256 272.159 48.8237C272.611 50.7182 273.99 51.5294 276.064 51.7108C277.443 51.8317 278.838 51.7309 280.227 51.746C280.562 51.746 280.643 51.615 280.643 51.3127C280.633 49.6953 280.633 48.0729 280.643 46.4505L280.648 46.4354ZM268.792 45.6191C267.469 46.6722 265.892 47.04 264.213 47.035C263.037 47.035 261.901 46.8435 260.922 46.1482C258.904 44.7172 259.234 41.4069 261.49 40.374C262.428 39.9457 263.412 39.729 264.441 39.724C266.515 39.719 268.584 39.724 270.658 39.724C270.856 39.724 271.094 39.6484 271.105 39.991C271.155 42.1979 270.598 44.1781 268.792 45.6141V45.6191Z"
    fill="#0B1423"></path>
  <path
    d="M185.99 33.9139C185.001 29.5404 182.41 26.5223 178.171 24.9503C175.23 23.862 172.192 23.7864 169.15 24.4263C164.403 25.4239 161.193 28.2405 159.601 32.7651C158.379 36.2367 158.43 39.7889 159.561 43.2806C160.539 46.2937 162.405 48.6518 165.27 50.1432C169.195 52.1888 173.323 52.5919 177.567 51.3978C181.923 50.1734 184.778 47.4072 185.894 42.9834C185.995 42.5803 185.929 42.4644 185.503 42.4694C183.571 42.4845 181.639 42.4845 179.707 42.4694C179.347 42.4694 179.195 42.5803 179.079 42.9229C178.597 44.3186 177.684 45.3364 176.335 46.0015C175.25 46.5356 174.109 46.717 172.928 46.727C170.646 46.7472 168.668 46.072 167.268 44.1926C166.376 42.9985 166.001 41.6179 165.92 40.1416C165.894 39.6982 165.991 39.5874 166.442 39.5874C169.637 39.6075 172.836 39.5974 176.031 39.5974C179.246 39.5974 182.461 39.5924 185.676 39.6075C186.066 39.6075 186.234 39.5118 186.274 39.1037C186.447 37.3553 186.386 35.627 185.995 33.9139H185.99ZM178.906 34.9317C176.837 34.9216 174.768 34.9317 172.694 34.9317C170.676 34.9317 168.658 34.9166 166.645 34.9418C166.158 34.9468 166.031 34.8108 166.138 34.3422C166.7 31.8431 168.207 30.1652 170.681 29.5102C172.953 28.9106 175.184 29.1172 177.131 30.5885C178.419 31.5609 179.043 32.9415 179.357 34.4883C179.444 34.9065 179.246 34.9418 178.906 34.9418V34.9317Z"
    fill="#0B1423"></path>
</svg>